<?xml version="1.0" standalone="no"?>
<!DOCTYPE svg PUBLIC "-//W3C//DTD SVG 20010904//EN"
 "http://www.w3.org/TR/2001/REC-SVG-20010904/DTD/svg10.dtd">
<svg version="1.0" xmlns="http://www.w3.org/2000/svg"
 width="1348.000000pt" height="655.000000pt" viewBox="0 0 1348.000000 655.000000"
 preserveAspectRatio="xMidYMid meet">

<g transform="translate(0.000000,655.000000) scale(0.100000,-0.100000)"
fill="#000000" stroke="none">
<path d="M11880 6320 c0 -5 9 -10 19 -10 15 0 24 -15 40 -62 12 -34 21 -72 21
-85 0 -22 3 -23 78 -21 l77 2 -72 3 c-56 3 -73 7 -73 18 0 10 10 15 29 15 62
0 122 13 130 29 5 9 12 31 16 49 l7 32 -101 0 c-88 0 -104 3 -121 20 -21 21
-50 27 -50 10z m198 -46 c39 -5 52 -11 52 -23 0 -34 -24 -49 -92 -55 l-67 -6
-10 37 c-6 21 -11 41 -11 46 0 9 56 9 128 1z"/>
<path d="M5158 6265 c-15 -8 -29 -24 -33 -35 -3 -11 -10 -20 -14 -20 -4 0 -8
-13 -8 -30 0 -16 4 -30 8 -30 4 0 11 -9 14 -20 15 -47 38 -50 445 -50 413 0
424 1 448 55 23 51 7 107 -39 131 -42 21 -781 20 -821 -1z m287 -46 c4 -6 4
-13 0 -17 -4 -4 -10 -1 -12 6 -6 14 -33 16 -33 2 0 -6 12 -15 26 -20 32 -12
29 -44 -5 -48 -25 -4 -50 13 -36 25 4 5 10 2 12 -4 6 -18 33 -16 33 1 0 8 -11
17 -25 20 -24 6 -33 25 -18 39 10 11 51 8 58 -4z m265 1 c0 -5 9 -10 20 -10
16 0 20 -7 20 -35 0 -44 -17 -46 -23 -2 l-3 32 -8 -31 c-7 -26 -13 -31 -41
-32 -26 -1 -35 3 -40 19 -8 25 13 52 37 46 11 -3 18 0 18 9 0 8 5 14 10 14 6
0 10 -4 10 -10z m-192 -32 c2 -13 -3 -18 -17 -18 -12 0 -21 -5 -21 -11 0 -6 9
-8 23 -4 17 6 19 4 11 -5 -27 -28 -65 7 -50 46 8 21 50 14 54 -8z m98 -14
c-10 -31 -14 -34 -48 -34 -31 0 -38 4 -38 20 0 14 7 20 21 20 11 0 18 4 14 10
-3 5 -13 6 -22 3 -10 -4 -14 -2 -10 4 4 6 27 11 50 11 l43 0 -10 -34z"/>
<path d="M5654 6185 c-3 -8 -3 -19 0 -24 9 -13 36 -2 36 14 0 19 -30 27 -36
10z"/>
<path d="M5480 6190 c0 -5 5 -10 11 -10 5 0 7 5 4 10 -3 6 -8 10 -11 10 -2 0
-4 -4 -4 -10z"/>
<path d="M5550 6159 c0 -5 5 -7 10 -4 6 3 10 8 10 11 0 2 -4 4 -10 4 -5 0 -10
-5 -10 -11z"/>
<path d="M8890 6201 c0 -14 -8 -21 -27 -24 l-28 -4 27 -2 c19 -1 28 -7 31 -23
2 -13 5 -2 6 25 0 26 -1 47 -4 47 -3 0 -5 -9 -5 -19z"/>
<path d="M9450 6210 c0 -5 5 -10 10 -10 6 0 10 5 10 10 0 6 -4 10 -10 10 -5 0
-10 -4 -10 -10z"/>
<path d="M9772 6181 c2 -29 8 -46 18 -48 12 -4 13 -3 1 5 -8 6 -12 20 -9 35 3
14 1 32 -4 39 -5 8 -7 -3 -6 -31z"/>
<path d="M10042 6208 c-16 -16 -15 -53 3 -68 18 -15 47 -10 52 10 4 12 3 12
-5 2 -17 -25 -47 -10 -47 23 0 26 4 30 27 30 14 -1 24 3 22 7 -8 12 -38 10
-52 -4z"/>
<path d="M10502 6181 c2 -29 8 -46 18 -48 12 -4 13 -3 1 5 -8 6 -12 20 -9 35
3 14 1 32 -4 39 -5 8 -7 -3 -6 -31z"/>
<path d="M10980 6210 c0 -5 5 -10 10 -10 6 0 10 5 10 10 0 6 -4 10 -10 10 -5
0 -10 -4 -10 -10z"/>
<path d="M11452 6181 c2 -29 8 -46 18 -48 12 -4 13 -3 1 5 -8 6 -12 20 -9 35
3 14 1 32 -4 39 -5 8 -7 -3 -6 -31z"/>
<path d="M8217 6193 c-3 -5 5 -8 18 -8 13 0 21 3 18 8 -2 4 -10 7 -18 7 -8 0
-16 -3 -18 -7z"/>
<path d="M8297 6194 c-4 -4 -7 -16 -7 -26 0 -14 6 -19 23 -16 14 2 22 10 22
23 0 20 -25 32 -38 19z m33 -19 c0 -8 -7 -15 -15 -15 -8 0 -15 7 -15 15 0 8 7
15 15 15 8 0 15 -7 15 -15z"/>
<path d="M8470 6196 c0 -2 7 -7 16 -10 8 -3 12 -2 9 4 -6 10 -25 14 -25 6z"/>
<path d="M8935 6189 c-4 -6 -4 -13 -1 -16 3 -4 6 -1 6 5 0 6 8 13 18 15 15 4
15 5 0 6 -9 0 -20 -4 -23 -10z"/>
<path d="M9013 6165 c0 -22 2 -30 4 -17 2 12 2 30 0 40 -3 9 -5 -1 -4 -23z"/>
<path d="M9042 6194 c10 -3 19 -19 21 -37 4 -31 5 -31 3 3 -1 27 -5 35 -21 37
-14 1 -15 0 -3 -3z"/>
<path d="M9158 6193 c7 -3 16 -2 19 1 4 3 -2 6 -13 5 -11 0 -14 -3 -6 -6z"/>
<path d="M9540 6196 c0 -2 7 -7 16 -10 8 -3 12 -2 9 4 -6 10 -25 14 -25 6z"/>
<path d="M9607 6193 c-3 -5 5 -8 18 -8 13 0 21 3 18 8 -2 4 -10 7 -18 7 -8 0
-16 -3 -18 -7z"/>
<path d="M10125 6189 c-4 -6 -4 -13 -1 -16 3 -4 6 -1 6 5 0 6 8 13 18 15 15 4
15 5 0 6 -9 0 -20 -4 -23 -10z"/>
<path d="M10242 6186 c7 -8 15 -12 17 -11 5 6 -10 25 -20 25 -5 0 -4 -6 3 -14z"/>
<path d="M10346 6191 c-4 -5 3 -7 14 -4 23 6 26 13 6 13 -8 0 -17 -4 -20 -9z"/>
<path d="M10425 6189 c-4 -6 -4 -13 -1 -16 3 -4 6 -1 6 6 0 8 8 11 20 8 11 -3
18 -1 14 4 -7 12 -31 11 -39 -2z"/>
<path d="M10675 6189 c-4 -6 -4 -13 -1 -16 3 -4 6 -1 6 5 0 6 8 13 18 15 15 4
15 5 0 6 -9 0 -20 -4 -23 -10z"/>
<path d="M11060 6196 c0 -2 7 -7 16 -10 8 -3 12 -2 9 4 -6 10 -25 14 -25 6z"/>
<path d="M11127 6193 c-3 -5 5 -8 18 -8 13 0 21 3 18 8 -2 4 -10 7 -18 7 -8 0
-16 -3 -18 -7z"/>
<path d="M11208 6193 c7 -3 16 -2 19 1 4 3 -2 6 -13 5 -11 0 -14 -3 -6 -6z"/>
<path d="M11272 6175 c0 -16 2 -22 5 -12 2 9 2 23 0 30 -3 6 -5 -1 -5 -18z"/>
<path d="M11323 6165 c0 -22 2 -30 4 -17 2 12 2 30 0 40 -3 9 -5 -1 -4 -23z"/>
<path d="M11361 6160 c1 -34 2 -34 8 -6 3 16 15 33 26 37 17 6 15 7 -7 6 -25
-1 -28 -5 -27 -37z"/>
<path d="M2450 6186 c0 -2 9 -6 20 -9 11 -3 18 -1 14 4 -5 9 -34 13 -34 5z"/>
<path d="M9684 6160 c1 -20 6 -25 29 -26 24 -1 27 2 26 30 -1 29 -1 30 -8 6
-9 -33 -38 -39 -44 -8 -4 21 -4 21 -3 -2z"/>
<path d="M8981 6164 c0 -11 3 -14 6 -6 3 7 2 16 -1 19 -3 4 -6 -2 -5 -13z"/>
<path d="M9140 6165 c0 -8 9 -10 25 -7 14 2 25 6 25 7 0 1 -11 5 -25 7 -16 3
-25 1 -25 -7z"/>
<path d="M10171 6164 c0 -11 3 -14 6 -6 3 7 2 16 -1 19 -3 4 -6 -2 -5 -13z"/>
<path d="M11041 6164 c0 -11 3 -14 6 -6 3 7 2 16 -1 19 -3 4 -6 -2 -5 -13z"/>
<path d="M11194 6155 c1 -13 8 -20 24 -21 17 -1 18 -1 3 3 -11 2 -22 12 -24
21 -3 12 -4 11 -3 -3z"/>
<path d="M11241 6164 c0 -11 3 -14 6 -6 3 7 2 16 -1 19 -3 4 -6 -2 -5 -13z"/>
<path d="M11412 6155 c0 -16 2 -22 5 -12 2 9 2 23 0 30 -3 6 -5 -1 -5 -18z"/>
<path d="M2530 6166 c0 -2 7 -7 16 -10 8 -3 12 -2 9 4 -6 10 -25 14 -25 6z"/>
<path d="M2586 6161 c-4 -5 3 -7 14 -4 23 6 26 13 6 13 -8 0 -17 -4 -20 -9z"/>
<path d="M2756 6162 c-2 -4 4 -8 14 -8 10 0 16 4 14 8 -3 4 -9 8 -14 8 -5 0
-11 -4 -14 -8z"/>
<path d="M2856 6162 c-2 -4 4 -8 14 -8 10 0 16 4 14 8 -3 4 -9 8 -14 8 -5 0
-11 -4 -14 -8z"/>
<path d="M2930 6166 c0 -2 7 -7 16 -10 8 -3 12 -2 9 4 -6 10 -25 14 -25 6z"/>
<path d="M2985 6159 c-4 -6 -5 -12 -2 -15 2 -3 7 2 10 11 7 17 1 20 -8 4z"/>
<path d="M3025 6160 c-3 -6 1 -7 9 -4 18 7 21 14 7 14 -6 0 -13 -4 -16 -10z"/>
<path d="M9112 6150 c0 -14 2 -19 5 -12 2 6 2 18 0 25 -3 6 -5 1 -5 -13z"/>
<path d="M10345 6160 c-3 -5 -3 -14 0 -20 8 -12 32 -13 39 -1 4 5 -3 7 -14 4
-11 -3 -20 -1 -20 5 0 6 10 13 23 15 22 4 22 4 0 6 -12 0 -25 -3 -28 -9z"/>
<path d="M10690 6166 c0 -2 7 -7 16 -10 8 -3 12 -2 9 4 -6 10 -25 14 -25 6z"/>
<path d="M2448 6148 c5 -5 16 -8 23 -6 8 3 3 7 -10 11 -17 4 -21 3 -13 -5z"/>
<path d="M8933 6150 c2 -8 12 -16 23 -17 13 -2 15 -1 4 4 -8 3 -19 11 -23 17
-6 7 -7 6 -4 -4z"/>
<path d="M10123 6150 c2 -8 12 -16 23 -17 13 -2 15 -1 4 4 -8 3 -19 11 -23 17
-6 7 -7 6 -4 -4z"/>
<path d="M10420 6152 c0 -18 29 -27 43 -13 9 9 8 11 -7 5 -11 -4 -21 -2 -27 7
-6 10 -9 11 -9 1z"/>
<path d="M10631 6144 c0 -11 3 -14 6 -6 3 7 2 16 -1 19 -3 4 -6 -2 -5 -13z"/>
<path d="M2510 6139 c0 -5 11 -9 25 -9 14 0 25 2 25 4 0 2 -11 6 -25 8 -14 3
-25 1 -25 -3z"/>
<path d="M2910 6139 c0 -5 11 -9 25 -9 14 0 25 2 25 4 0 2 -11 6 -25 8 -14 3
-25 1 -25 -3z"/>
<path d="M8217 6138 c2 -5 10 -8 18 -8 8 0 16 3 18 8 3 4 -5 7 -18 7 -13 0
-21 -3 -18 -7z"/>
<path d="M9527 6138 c2 -5 10 -8 18 -8 8 0 16 3 18 8 3 4 -5 7 -18 7 -13 0
-21 -3 -18 -7z"/>
<path d="M9607 6138 c2 -5 10 -8 18 -8 8 0 16 3 18 8 3 4 -5 7 -18 7 -13 0
-21 -3 -18 -7z"/>
<path d="M10678 6138 c5 -5 16 -8 23 -6 8 3 3 7 -10 11 -17 4 -21 3 -13 -5z"/>
<path d="M11127 6138 c2 -5 10 -8 18 -8 8 0 16 3 18 8 3 4 -5 7 -18 7 -13 0
-21 -3 -18 -7z"/>
<path d="M2598 6133 c7 -3 16 -2 19 1 4 3 -2 6 -13 5 -11 0 -14 -3 -6 -6z"/>
<path d="M3033 6133 c9 -2 23 -2 30 0 6 3 -1 5 -18 5 -16 0 -22 -2 -12 -5z"/>
<path d="M8158 6133 c6 -2 18 -2 25 0 6 3 1 5 -13 5 -14 0 -19 -2 -12 -5z"/>
<path d="M8284 6129 c-3 -6 -1 -16 5 -22 9 -9 11 -8 6 6 -6 14 -2 17 20 17 22
0 26 -3 20 -17 -5 -14 -3 -15 6 -6 16 16 3 33 -26 33 -13 0 -27 -5 -31 -11z"/>
<path d="M9158 6133 c7 -3 16 -2 19 1 4 3 -2 6 -13 5 -11 0 -14 -3 -6 -6z"/>
<path d="M10598 6133 c7 -3 16 -2 19 1 4 3 -2 6 -13 5 -11 0 -14 -3 -6 -6z"/>
<path d="M11058 6133 c6 -2 18 -2 25 0 6 3 1 5 -13 5 -14 0 -19 -2 -12 -5z"/>
<path d="M11288 6133 c7 -3 16 -2 19 1 4 3 -2 6 -13 5 -11 0 -14 -3 -6 -6z"/>
<path d="M2465 6110 c-16 -7 -17 -9 -3 -9 9 -1 20 4 23 9 7 11 7 11 -20 0z"/>
<path d="M2540 6110 c-9 -6 -10 -10 -3 -10 6 0 15 5 18 10 8 12 4 12 -15 0z"/>
<path d="M2595 6110 c-16 -7 -17 -9 -3 -9 9 -1 20 4 23 9 7 11 7 11 -20 0z"/>
<path d="M2710 6110 c-9 -6 -10 -10 -3 -10 6 0 15 5 18 10 8 12 4 12 -15 0z"/>
<path d="M2940 6110 c-9 -6 -10 -10 -3 -10 6 0 15 5 18 10 8 12 4 12 -15 0z"/>
<path d="M3028 6108 c5 -5 16 -8 23 -6 8 3 3 7 -10 11 -17 4 -21 3 -13 -5z"/>
<path d="M11947 6114 c-12 -12 -8 -42 6 -47 21 -8 39 8 35 29 -3 19 -29 30
-41 18z m33 -25 c0 -5 -7 -9 -15 -9 -15 0 -20 12 -9 23 8 8 24 -1 24 -14z"/>
<path d="M12067 6114 c-12 -12 -8 -42 6 -47 21 -8 39 8 35 29 -3 19 -29 30
-41 18z m33 -25 c0 -5 -7 -9 -15 -9 -15 0 -20 12 -9 23 8 8 24 -1 24 -14z"/>
<path d="M7882 3956 c-12 -6 -25 -19 -28 -28 -3 -10 -16 -21 -29 -24 -38 -9
-50 -30 -23 -38 21 -6 19 -8 -19 -24 -23 -9 -52 -26 -65 -38 -13 -11 -40 -31
-60 -45 -45 -29 -51 -59 -12 -59 18 0 48 19 94 60 89 79 100 79 100 -5 l0 -65
30 0 c24 0 33 -7 50 -39 21 -41 66 -84 84 -78 9 3 27 -11 55 -46 12 -15 11
-15 -18 -1 -37 18 -58 10 -39 -14 10 -14 10 -15 -2 -4 -22 19 -28 14 -25 -20
2 -18 8 -32 13 -31 14 3 8 -43 -8 -62 -19 -22 -7 -28 42 -21 66 10 75 19 54
51 -10 15 -15 33 -12 40 3 8 0 16 -7 18 -7 2 -8 8 -4 13 5 5 12 2 17 -6 5 -8
15 -24 24 -35 15 -20 15 -20 30 2 13 17 26 21 75 21 44 0 64 5 78 19 17 15 76
65 117 98 15 12 46 69 46 85 0 6 15 25 33 42 21 21 32 42 32 60 0 33 -10 37
-18 7 -3 -11 -15 -23 -26 -26 -12 -3 -21 -10 -21 -15 0 -5 -4 -7 -9 -4 -5 3
-9 22 -9 41 0 20 4 32 10 29 5 -3 2 8 -6 25 -9 17 -21 31 -26 31 -6 0 -20 11
-32 25 -12 14 -26 25 -31 25 -5 0 -22 9 -38 21 -40 28 -133 32 -219 9 -95 -25
-110 -31 -105 -40 3 -5 -4 -6 -15 -3 -11 3 -17 9 -15 14 6 8 -25 50 -35 48 -3
-1 -15 -6 -28 -13z m455 -116 c7 0 13 -3 14 -7 3 -30 11 -58 18 -63 5 -3 11
-15 15 -26 7 -24 -12 -38 -34 -24 -17 11 -21 53 -6 62 7 5 3 8 -8 8 -11 0 -16
3 -13 7 4 3 -2 20 -13 38 -11 18 -17 35 -13 39 4 4 12 -2 17 -13 5 -12 15 -21
23 -21z m-367 -130 c0 -5 -5 -10 -11 -10 -5 0 -7 5 -4 10 3 6 8 10 11 10 2 0
4 -4 4 -10z"/>
<path d="M7970 3960 c0 -5 7 -7 15 -4 8 4 15 8 15 10 0 2 -7 4 -15 4 -8 0 -15
-4 -15 -10z"/>
<path d="M8520 3781 c0 -17 18 -21 24 -6 3 9 0 15 -9 15 -8 0 -15 -4 -15 -9z"/>
<path d="M9617 3765 c-14 -6 -33 -18 -44 -26 -10 -9 -33 -24 -50 -33 -25 -13
-33 -23 -33 -44 0 -39 -28 -76 -46 -62 -11 10 -13 0 -11 -62 3 -65 7 -80 41
-133 21 -33 52 -77 69 -98 16 -21 27 -41 23 -44 -10 -10 15 -33 36 -33 10 0
16 -4 13 -10 -3 -5 0 -10 8 -10 8 0 20 -7 27 -15 7 -8 21 -15 32 -15 15 0 16
-2 6 -13 -10 -12 -15 -12 -26 0 -7 7 -22 13 -33 13 -10 0 -19 6 -19 13 -1 6
-7 -1 -14 -18 -8 -19 -10 -42 -5 -62 4 -20 3 -33 -3 -33 -5 0 -6 -6 -2 -12 5
-10 3 -10 -7 0 -8 7 -15 26 -15 42 -2 52 -4 57 -16 57 -9 0 -13 -21 -13 -71 0
-39 -4 -72 -9 -73 -5 -1 -12 -7 -17 -14 -6 -10 -13 -10 -33 -1 -20 9 -26 19
-26 44 0 38 -3 43 -51 84 -26 22 -51 33 -88 38 -28 4 -50 10 -50 14 2 17 -14
51 -22 46 -5 -3 -9 0 -9 5 0 6 6 11 14 11 8 0 18 5 21 10 4 7 -8 10 -33 8 -22
-2 -38 -6 -36 -10 2 -3 -3 -14 -12 -22 -9 -9 -14 -23 -11 -30 3 -7 -5 -19 -17
-25 -12 -7 -27 -24 -34 -39 -6 -15 -21 -42 -32 -60 l-20 -34 25 -31 c14 -18
29 -36 34 -40 39 -37 50 -42 96 -42 28 0 73 -4 101 -8 40 -6 53 -5 63 7 12 14
41 12 41 -4 0 -4 -19 -20 -42 -36 -24 -16 -47 -36 -53 -44 -32 -51 12 -49 58
2 26 29 37 35 60 31 15 -3 27 -11 27 -17 0 -28 26 -66 45 -65 11 0 15 3 8 5
-19 8 5 53 28 54 4 0 9 -9 12 -21 7 -26 22 -18 43 24 9 18 30 47 47 65 25 26
32 41 32 75 0 33 4 42 19 45 11 3 16 0 12 -7 -4 -6 -3 -11 3 -11 6 0 15 9 21
21 10 17 8 21 -8 26 -11 2 -25 16 -31 29 -14 31 -14 34 -1 34 6 0 10 -6 10
-13 0 -27 21 -36 41 -16 21 21 25 39 8 39 -6 0 -9 9 -6 20 3 10 2 21 -2 23 -3
2 1 2 9 0 31 -9 35 -7 38 13 2 16 8 20 23 17 10 -3 19 -1 19 3 0 5 11 22 25
38 30 35 30 36 5 36 -12 0 -32 -11 -45 -26 -20 -22 -27 -24 -57 -15 -18 5 -27
10 -20 10 6 1 12 6 12 12 0 5 -4 8 -9 5 -15 -10 -40 5 -34 20 7 20 -7 18 -23
-3 -11 -15 -13 -15 -13 -3 0 42 80 90 150 90 27 0 49 5 49 10 0 6 7 10 15 10
8 0 15 5 15 10 0 6 8 10 18 10 11 0 24 12 31 27 l13 28 26 -32 c15 -18 45 -55
67 -82 44 -56 65 -64 65 -26 0 29 -38 115 -51 115 -5 0 -9 6 -9 13 0 12 -169
182 -243 244 -59 50 -161 72 -220 48z m-37 -79 c0 -3 -4 -8 -10 -11 -5 -3 -10
-1 -10 4 0 6 5 11 10 11 6 0 10 -2 10 -4z m-20 -36 c0 -5 11 -20 25 -34 26
-26 32 -50 15 -61 -17 -10 -11 -25 7 -18 14 5 13 1 -6 -25 -12 -18 -27 -33
-32 -33 -19 -3 -24 -5 -36 -12 -8 -5 -11 -3 -9 5 3 7 7 27 10 43 5 22 4 26 -4
15 -7 -11 -9 -1 -5 34 2 27 8 53 14 59 5 5 7 16 4 23 -3 8 0 14 6 14 6 0 11
-4 11 -10z m245 -180 c3 -5 -1 -10 -10 -10 -9 0 -13 5 -10 10 3 6 8 10 10 10
2 0 7 -4 10 -10z m50 -20 c34 -13 23 -30 -21 -30 -32 0 -33 1 -22 20 7 11 14
20 15 20 1 0 14 -4 28 -10z m-200 -30 c-3 -5 -10 -10 -16 -10 -5 0 -9 5 -9 10
0 6 7 10 16 10 8 0 12 -4 9 -10z m-5 -265 c0 -9 12 -27 26 -40 15 -14 23 -25
18 -25 -5 0 -2 -5 6 -10 12 -8 9 -10 -12 -10 -16 0 -28 6 -28 13 0 6 -9 23
-20 37 -23 30 -25 50 -5 50 8 0 15 -7 15 -15z m-300 -64 c0 -11 -4 -22 -9 -25
-12 -8 -34 21 -26 34 11 17 35 11 35 -9z m-76 -72 c17 -10 25 -19 17 -19 -18
0 -61 39 -60 54 0 6 3 5 6 -2 3 -8 19 -22 37 -33z m92 15 c-4 -9 -9 -15 -11
-12 -3 3 -3 13 1 22 4 9 9 15 11 12 3 -3 3 -13 -1 -22z m232 -9 c-3 -3 -9 2
-12 12 -6 14 -5 15 5 6 7 -7 10 -15 7 -18z"/>
<path d="M9994 3605 c21 -16 32 -13 21 4 -3 6 -14 11 -23 11 -15 -1 -15 -2 2
-15z"/>
<path d="M7880 3561 c0 -38 10 -51 31 -40 24 13 24 35 0 49 -27 14 -31 13 -31
-9z"/>
<path d="M4764 3456 c-10 -26 4 -48 28 -44 17 2 23 10 23 28 0 18 -6 26 -23
28 -13 2 -25 -3 -28 -12z"/>
<path d="M3840 3305 l0 -155 25 0 c24 0 25 2 25 70 0 57 4 74 20 90 46 46 80
7 80 -92 0 -67 1 -68 26 -68 l26 0 -4 89 c-2 70 -7 93 -22 110 -23 26 -81 28
-108 4 -17 -15 -18 -14 -18 45 0 59 -1 62 -25 62 l-25 0 0 -155z"/>
<path d="M3593 3436 c-55 -25 -69 -78 -30 -113 12 -12 47 -32 78 -46 67 -29
77 -42 53 -68 -28 -31 -104 -19 -104 16 0 9 -10 15 -25 15 -25 0 -31 -13 -19
-45 10 -25 59 -45 114 -45 61 0 100 31 100 78 0 41 -17 57 -92 91 -50 22 -68
35 -68 50 0 35 72 44 92 11 15 -23 58 -27 58 -6 0 8 -10 26 -22 40 -29 32 -90
42 -135 22z"/>
<path d="M1690 3294 l0 -146 86 3 c79 4 87 6 110 32 30 36 30 61 0 92 -23 23
-23 24 -5 41 29 26 25 78 -7 103 -22 17 -41 21 -105 21 l-79 0 0 -146z m141
96 c21 -12 25 -40 7 -58 -7 -7 -31 -12 -55 -12 l-43 0 0 40 c0 39 1 40 36 40
19 0 44 -5 55 -10z m14 -155 c0 -26 -5 -31 -36 -39 -52 -13 -69 -3 -69 39 l0
36 53 -3 c50 -3 52 -4 52 -33z"/>
<path d="M2460 3395 c0 -16 -6 -25 -15 -25 -8 0 -15 -6 -15 -14 0 -8 7 -16 15
-20 11 -4 15 -23 15 -80 0 -88 12 -106 71 -106 33 0 39 3 39 21 0 13 -6 20
-17 18 -43 -4 -44 -1 -41 74 3 70 4 72 31 75 38 5 36 32 -3 32 -25 0 -30 4
-30 25 0 20 -5 25 -25 25 -20 0 -25 -5 -25 -25z"/>
<path d="M3260 3395 c0 -16 -6 -25 -15 -25 -8 0 -15 -7 -15 -15 0 -8 7 -15 15
-15 12 0 15 -15 15 -73 0 -95 14 -117 76 -117 38 0 45 3 42 18 -2 10 -12 16
-25 15 -34 -4 -44 19 -41 89 3 60 4 63 31 66 38 5 36 32 -3 32 -25 0 -30 4
-30 25 0 20 -5 25 -25 25 -20 0 -25 -5 -25 -25z"/>
<path d="M1989 3341 c-25 -25 -29 -37 -29 -81 0 -44 4 -56 29 -81 24 -23 38
-29 75 -29 37 0 48 5 66 28 l22 27 -22 3 c-12 2 -27 -1 -33 -7 -15 -15 -60
-14 -75 1 -7 7 -12 20 -12 30 0 16 9 18 70 18 68 0 70 1 70 25 0 33 -25 81
-45 89 -40 15 -87 6 -116 -23z m109 -38 c3 -21 -1 -23 -42 -23 -50 0 -51 1
-35 31 15 29 73 23 77 -8z"/>
<path d="M2220 3350 c-11 -11 -20 -26 -20 -33 0 -27 32 -56 80 -72 52 -17 64
-37 32 -54 -20 -11 -62 -4 -62 10 0 5 -11 9 -25 9 -15 0 -25 -6 -25 -14 0 -26
42 -46 96 -46 45 0 56 4 73 26 12 15 21 33 21 40 0 18 -41 48 -89 64 -51 16
-59 50 -12 50 17 0 33 -4 36 -10 3 -5 17 -10 31 -10 29 0 31 13 4 40 -15 15
-33 20 -70 20 -37 0 -55 -5 -70 -20z"/>
<path d="M2750 3210 l0 -160 25 0 c23 0 25 3 25 53 l0 52 48 -3 c40 -3 52 0
74 22 47 47 45 121 -4 174 -26 27 -83 30 -110 5 -17 -15 -18 -15 -18 0 0 10
-8 17 -20 17 -19 0 -20 -7 -20 -160z m135 100 c25 -27 23 -76 -3 -103 -18 -17
-26 -19 -49 -11 -24 8 -28 15 -31 55 -5 71 42 104 83 59z"/>
<path d="M3029 3341 c-25 -25 -29 -37 -29 -81 0 -44 4 -56 29 -81 24 -23 38
-29 75 -29 37 0 48 5 66 28 l22 27 -22 3 c-12 2 -27 -1 -33 -7 -15 -15 -60
-14 -75 1 -7 7 -12 20 -12 30 0 16 9 18 70 18 68 0 70 1 70 25 0 33 -25 81
-45 89 -40 15 -87 6 -116 -23z m109 -38 c3 -21 -1 -23 -42 -23 -50 0 -51 1
-35 31 15 29 73 23 77 -8z"/>
<path d="M4129 3341 c-24 -25 -29 -38 -29 -79 0 -40 6 -57 26 -81 22 -27 33
-31 73 -31 58 0 88 20 101 69 22 84 -20 151 -97 151 -36 0 -50 -6 -74 -29z
m112 -27 c21 -25 17 -93 -6 -110 -43 -31 -85 -5 -85 53 0 62 57 97 91 57z"/>
<path d="M4370 3210 l0 -160 25 0 c24 0 25 3 25 54 l0 53 48 -5 c66 -6 102 24
109 89 11 94 -63 159 -137 119 -13 -7 -21 -7 -25 0 -3 5 -15 10 -26 10 -18 0
-19 -8 -19 -160z m140 100 c38 -38 13 -120 -37 -120 -28 0 -53 31 -53 67 0 35
29 73 55 73 8 0 24 -9 35 -20z"/>
<path d="M4760 3260 l0 -110 25 0 25 0 0 110 0 110 -25 0 -25 0 0 -110z"/>
<path d="M4910 3260 l0 -110 25 0 c24 0 25 2 25 70 0 57 4 74 20 90 48 48 80
14 80 -86 0 -73 0 -74 26 -74 l26 0 -4 89 c-2 70 -7 93 -22 110 -23 25 -87 29
-106 6 -7 -8 -16 -15 -21 -15 -5 0 -9 7 -9 15 0 8 -9 15 -20 15 -19 0 -20 -7
-20 -110z"/>
<path d="M7970 3345 c7 -9 15 -13 17 -11 7 7 -7 26 -19 26 -6 0 -6 -6 2 -15z"/>
<path d="M8095 3334 c-13 -14 -32 -46 -41 -70 -15 -39 -15 -46 -1 -67 16 -24
65 -31 59 -8 -1 7 2 21 8 31 7 13 7 20 1 20 -11 0 -8 21 8 63 23 60 7 75 -34
31z"/>
<path d="M8543 3348 c-4 -7 -6 -22 -4 -32 2 -17 -2 -18 -59 -13 -71 6 -101 -3
-145 -45 -16 -15 -41 -37 -55 -48 -23 -18 -24 -21 -7 -30 9 -6 17 -17 17 -24
0 -7 17 -21 38 -32 20 -10 39 -22 42 -26 3 -4 17 -9 30 -11 35 -7 80 -28 80
-39 0 -12 47 -10 72 5 30 16 48 34 42 39 -3 3 7 3 21 0 26 -5 27 -4 22 41 -3
26 -9 52 -13 58 -3 6 -1 14 5 18 8 5 9 15 2 32 -5 13 -10 20 -11 14 0 -5 -4
-4 -9 4 -6 9 -5 21 2 32 9 15 6 22 -16 43 -31 29 -42 32 -54 14z m43 -33 c10
-26 -1 -35 -13 -10 -6 14 -7 25 -2 25 5 0 12 -7 15 -15z m-126 -74 c0 -5 -6
-14 -14 -20 -16 -13 -32 2 -21 19 8 12 35 13 35 1z m-56 -56 c3 -8 1 -15 -4
-15 -6 0 -10 7 -10 15 0 8 2 15 4 15 2 0 6 -7 10 -15z"/>
<path d="M8132 3188 c-32 -35 -49 -47 -56 -41 -3 4 -6 -1 -6 -10 0 -10 8 -17
21 -17 13 0 18 -4 13 -12 -4 -7 -3 -8 4 -4 7 4 12 13 12 19 0 7 9 29 20 50 23
43 22 46 -8 15z"/>
<path d="M8172 3165 c1 -25 3 -45 5 -45 1 0 13 11 26 24 l23 23 -24 22 c-13
11 -25 21 -28 21 -2 0 -3 -20 -2 -45z"/>
<path d="M2705 2910 c-8 -26 6 -43 31 -38 13 2 19 12 19 28 0 34 -40 41 -50
10z"/>
<path d="M2000 2765 l0 -155 24 0 c22 0 25 5 28 47 2 25 8 48 14 50 6 2 28
-19 48 -47 30 -42 41 -50 67 -50 l31 0 -24 33 c-13 17 -36 48 -51 68 l-27 37
47 40 48 41 -36 1 c-27 0 -43 -8 -69 -35 -19 -19 -38 -35 -42 -35 -4 0 -8 36
-8 80 0 79 0 80 -25 80 l-25 0 0 -155z"/>
<path d="M1680 2801 c0 -156 23 -191 123 -191 45 0 59 4 79 25 31 31 38 62 38
176 0 87 0 89 -24 89 -24 0 -24 -2 -28 -106 -3 -97 -5 -107 -27 -125 -31 -26
-57 -24 -86 6 -23 22 -25 31 -25 125 l0 100 -25 0 c-25 0 -25 0 -25 -99z"/>
<path d="M8629 2853 c-23 -6 -73 -71 -89 -115 -11 -29 -11 -48 -2 -90 6 -29
14 -84 17 -123 3 -38 7 -79 8 -90 1 -15 -5 -21 -26 -23 -15 -2 -39 -10 -54
-17 -15 -8 -30 -12 -35 -9 -4 3 -17 0 -28 -6 -42 -23 -147 40 -132 78 3 10 1
13 -6 8 -6 -3 -13 -2 -17 4 -3 5 -1 10 4 10 6 0 11 4 11 9 0 5 -10 7 -22 4
-14 -3 -19 -1 -11 4 23 16 5 121 -18 107 -4 -2 -12 3 -19 11 -11 13 -10 14 6
9 15 -5 16 -4 4 5 -21 14 -78 11 -84 -6 -3 -7 -1 -13 4 -13 6 0 10 -7 10 -15
0 -8 8 -15 18 -15 15 -1 15 -2 -2 -15 -25 -19 -12 -33 14 -17 34 21 36 13 5
-13 -25 -20 -27 -26 -15 -34 8 -5 15 -20 16 -33 0 -13 8 -39 16 -59 9 -20 19
-56 23 -80 4 -24 14 -53 21 -63 7 -11 21 -43 30 -72 11 -36 31 -68 60 -98 24
-24 44 -53 44 -65 0 -11 6 -25 13 -30 6 -6 26 -22 42 -37 17 -14 42 -32 58
-40 15 -8 27 -18 27 -22 0 -4 15 -9 32 -10 18 -2 42 -9 54 -17 17 -11 89 -14
114 -5 3 1 28 2 55 2 28 0 58 5 68 10 11 5 17 5 17 -2 0 -5 5 -10 11 -10 6 0
9 7 5 15 -5 13 5 20 27 16 4 0 7 9 7 21 0 17 3 19 12 10 7 -7 17 -8 30 -1 26
14 23 -2 -9 -55 -20 -33 -38 -49 -68 -60 -22 -9 -45 -16 -50 -16 -6 0 -20 -8
-33 -18 -20 -16 -21 -21 -11 -52 18 -54 37 -70 81 -70 30 0 45 7 65 28 14 15
29 26 34 25 5 -2 9 2 9 8 0 6 7 9 15 6 20 -8 28 9 15 33 -9 17 -7 22 15 30 14
5 25 14 25 20 0 23 54 60 88 60 17 0 32 14 96 88 25 29 16 38 -12 12 -26 -24
-30 -15 -6 12 16 16 16 18 0 24 -14 5 -12 9 9 25 13 11 38 40 55 66 30 44 30
45 8 38 -13 -4 -48 -13 -80 -20 -31 -7 -61 -16 -67 -19 -21 -13 -11 10 18 42
17 17 39 32 50 32 12 0 21 5 21 10 0 6 7 10 15 10 8 0 15 5 15 10 0 6 -7 10
-15 10 -8 0 -15 5 -15 10 0 12 6 13 29 0 15 -7 23 -2 44 31 14 22 31 55 36 74
5 19 19 47 30 61 12 15 21 31 21 37 0 6 7 19 17 29 9 10 13 21 9 26 -4 4 -13
-1 -20 -10 -13 -18 -93 -38 -83 -20 4 5 0 12 -8 16 -8 3 -12 12 -9 21 4 10 0
15 -10 15 -9 0 -16 -4 -16 -10 0 -5 -4 -10 -10 -10 -6 0 -9 6 -8 13 2 6 -4 13
-12 13 -8 1 -21 2 -28 3 -9 1 -11 8 -7 22 4 12 8 28 9 35 1 7 5 17 9 20 11 11
8 26 -3 19 -5 -3 -10 0 -11 7 -4 59 -10 83 -27 99 -18 16 -21 16 -26 2 -4 -11
-16 -14 -40 -11 l-34 4 0 -46 c0 -24 5 -48 11 -52 8 -5 8 -14 -1 -33 -7 -15
-8 -24 -2 -20 6 4 10 -5 10 -19 0 -14 -5 -28 -10 -31 -6 -4 -8 -11 -5 -16 4
-5 -1 -9 -9 -9 -9 0 -16 -5 -16 -11 0 -6 9 -9 20 -6 11 3 18 1 14 -4 -3 -5 2
-9 10 -9 34 0 6 -49 -34 -62 -9 -3 -1 -10 23 -18 40 -15 49 -30 18 -30 -10 0
-24 -6 -30 -14 -18 -21 -70 -26 -81 -7 -8 14 -9 13 -10 -3 0 -18 -1 -18 -19
-2 -10 9 -25 14 -35 10 -9 -3 -16 -1 -16 5 0 6 -8 11 -17 11 -26 1 -57 26 -42
35 6 4 16 1 21 -6 7 -10 8 -8 3 7 -3 13 0 28 10 37 9 10 11 18 5 22 -14 9 -12
35 2 33 7 -2 14 7 16 19 2 13 22 39 45 58 37 32 42 41 47 93 6 47 3 63 -14 93
-41 71 -72 99 -109 99 -20 0 -71 7 -114 15 -78 15 -103 17 -134 8z m-386 -336
c-3 -5 -10 -4 -15 1 -6 6 -7 16 -3 22 6 9 9 9 16 -1 4 -7 5 -17 2 -22z m870
-2 c-3 -9 -8 -14 -10 -11 -3 3 -2 9 2 15 9 16 15 13 8 -4z m24 -247 c-3 -7 -5
-2 -5 12 0 14 2 19 5 13 2 -7 2 -19 0 -25z m-77 -30 c0 -16 -3 -19 -11 -11 -6
6 -8 16 -5 22 11 17 16 13 16 -11z m-40 -3 c0 -8 -4 -15 -10 -15 -5 0 -7 7 -4
15 4 8 8 15 10 15 2 0 4 -7 4 -15z m-421 -21 c30 -8 55 -15 56 -16 1 -2 7 -12
12 -22 10 -19 11 -18 17 2 4 12 14 22 22 22 16 0 106 -47 114 -60 3 -4 22 -10
43 -13 49 -6 51 -9 33 -45 -21 -40 -105 -84 -163 -84 -129 0 -229 41 -272 113
-17 28 -17 99 0 99 5 0 9 6 9 14 0 16 35 14 129 -10z m470 -191 c-28 -36 -71
-75 -77 -69 -7 7 68 86 81 86 5 0 3 -8 -4 -17z m-429 -45 c0 -13 -53 -9 -72 6
-28 21 -21 24 27 13 25 -6 45 -14 45 -19z m237 -5 c-3 -10 -5 -4 -5 12 0 17 2
24 5 18 2 -7 2 -21 0 -30z"/>
<path d="M2260 2720 c0 -109 0 -110 24 -110 22 0 24 4 28 70 6 77 18 100 54
100 19 0 24 5 24 25 0 29 -29 35 -50 10 -7 -8 -16 -15 -21 -15 -5 0 -9 7 -9
15 0 9 -9 15 -25 15 l-25 0 0 -110z"/>
<path d="M2450 2810 c-28 -28 -25 -40 10 -40 17 0 30 4 30 9 0 16 38 23 60 11
12 -6 20 -21 20 -35 0 -24 -3 -25 -58 -25 -64 0 -92 -18 -92 -58 0 -51 77 -80
133 -51 16 9 22 9 25 0 2 -6 12 -11 23 -11 17 0 19 8 19 88 0 80 -2 91 -23
110 -32 30 -118 31 -147 2z m98 -106 c29 -8 28 -30 -3 -50 -32 -21 -65 -10
-65 21 0 21 8 27 40 34 3 0 15 -2 28 -5z"/>
<path d="M2710 2720 l0 -110 25 0 25 0 0 110 0 110 -25 0 -25 0 0 -110z"/>
<path d="M2850 2720 l0 -110 25 0 c24 0 25 3 25 60 0 71 15 108 47 116 41 11
53 -11 53 -97 0 -78 0 -79 25 -79 25 0 25 1 25 81 0 77 -10 115 -34 131 -19
13 -71 9 -94 -8 -20 -14 -22 -14 -22 0 0 10 -9 16 -25 16 l-25 0 0 -110z"/>
<path d="M3145 2806 c-45 -45 -41 -147 8 -181 32 -22 103 -19 127 5 11 11 20
25 20 30 0 15 -42 12 -63 -5 -21 -15 -46 -10 -64 13 -27 34 -16 42 57 42 l70
0 0 35 c0 77 -100 116 -155 61z m105 -35 c15 -30 14 -31 -40 -31 -52 0 -60 8
-34 34 21 22 61 20 74 -3z"/>
<path d="M8200 2661 c0 -5 7 -12 16 -15 14 -5 15 -4 4 9 -14 17 -20 19 -20 6z"/>
<path d="M8346 2633 c-6 -14 -5 -15 5 -6 7 7 10 15 7 18 -3 3 -9 -2 -12 -12z"/>
<path d="M11095 2326 c-3 -9 -8 -24 -12 -33 -14 -37 -13 -73 1 -73 8 0 17 6
20 13 3 8 15 1 34 -20 32 -37 46 -42 38 -15 -3 9 -10 36 -16 60 -7 26 -16 42
-26 42 -8 0 -13 4 -10 9 3 5 -1 14 -9 21 -12 10 -16 9 -20 -4z"/>
<path d="M5563 2190 c0 -30 2 -43 4 -27 2 15 2 39 0 55 -2 15 -4 2 -4 -28z"/>
<path d="M5683 2190 c0 -30 2 -43 4 -27 2 15 2 39 0 55 -2 15 -4 2 -4 -28z"/>
<path d="M1662 2188 c-2 -46 -1 -48 26 -47 22 1 23 2 5 6 -18 3 -23 13 -26 46
l-4 42 -1 -47z"/>
<path d="M5254 2191 c1 -30 6 -46 16 -48 10 -3 11 -2 3 4 -6 4 -13 26 -16 48
-4 40 -4 40 -3 -4z"/>
<path d="M5005 2210 c-16 -7 -17 -9 -3 -9 9 -1 20 4 23 9 7 11 7 11 -20 0z"/>
<path d="M10887 2168 c-18 -29 -46 -80 -62 -113 -15 -33 -35 -73 -43 -90 -9
-16 -15 -40 -14 -52 1 -12 -3 -25 -8 -28 -26 -16 -7 71 31 148 28 56 35 76 22
65 -11 -10 -32 -18 -47 -18 -14 0 -50 -12 -78 -26 -40 -20 -75 -28 -148 -34
-68 -5 -109 -14 -139 -30 -25 -12 -53 -19 -64 -16 -12 3 -28 -1 -37 -8 -15
-13 -46 -22 -110 -31 -19 -3 -52 -11 -72 -18 l-38 -13 57 -40 c60 -41 86 -76
75 -103 -4 -11 -9 -7 -19 16 -7 18 -23 39 -35 48 -13 9 -54 38 -92 66 -63 46
-116 75 -116 64 0 -10 54 -57 76 -65 29 -11 76 -84 73 -113 -3 -33 10 -56 42
-72 22 -12 28 -21 26 -44 -1 -16 -6 -26 -12 -23 -18 12 -35 10 -35 -3 0 -16
25 -37 33 -28 4 3 13 1 21 -6 11 -9 15 -8 20 5 4 9 9 14 13 10 4 -3 13 8 20
25 13 32 34 32 28 -1 -3 -13 1 -17 11 -13 7 3 11 10 8 15 -4 6 -1 9 5 7 7 -3
21 -20 32 -39 12 -19 14 -27 6 -16 -25 29 -40 10 -20 -24 18 -32 13 -46 -13
-36 -10 4 -14 12 -10 23 4 9 -1 24 -10 34 -20 22 -38 25 -31 5 9 -22 -38 -40
-60 -23 -7 5 -18 7 -25 4 -9 -4 -8 -6 3 -6 9 -1 22 -8 29 -16 17 -21 3 -19
-30 5 -28 20 -48 16 -29 -6 6 -7 12 -31 13 -53 3 -32 0 -41 -13 -41 -15 -1
-15 -2 0 -13 14 -10 14 -14 3 -25 -21 -19 -42 -14 -57 14 l-14 27 -5 -27 c-5
-22 -1 -29 19 -37 13 -5 29 -9 34 -9 15 0 10 -17 -7 -24 -9 -4 -23 -1 -30 5
-9 8 -14 8 -14 1 0 -6 4 -13 10 -17 5 -3 7 -12 3 -20 -10 -28 38 -16 72 18 18
18 37 31 43 29 6 -2 14 2 18 9 5 8 3 10 -7 4 -11 -7 -12 -6 -2 6 9 11 26 14
64 11 l52 -4 -37 38 c-40 41 -42 49 -22 69 12 12 19 9 50 -21 20 -19 36 -40
36 -47 1 -19 47 -67 66 -67 9 0 14 6 11 13 -3 7 -11 48 -17 90 -7 42 -17 77
-22 77 -5 0 -6 10 -2 22 6 20 5 21 -9 10 -13 -11 -15 -10 -13 4 4 28 20 27 49
-1 23 -23 25 -24 20 -6 -3 12 -1 21 6 21 6 0 13 -17 17 -37 3 -21 20 -54 36
-73 19 -21 28 -27 23 -15 -4 11 -12 33 -17 48 -6 15 -7 31 -3 35 9 10 36 -30
31 -45 -3 -7 1 -13 8 -13 8 0 17 -7 20 -16 3 -9 12 -14 19 -11 6 2 22 -11 34
-30 13 -19 18 -31 12 -27 -7 4 -10 -1 -7 -12 2 -14 11 -18 28 -16 20 2 22 1
10 -7 -12 -8 -12 -11 -1 -11 7 0 11 -6 8 -14 -3 -8 1 -20 8 -26 8 -7 12 -16 9
-21 -3 -5 -1 -9 4 -9 5 0 14 -11 20 -25 13 -28 39 -36 27 -7 -14 30 -13 70 0
96 8 14 10 26 4 26 -5 0 -9 5 -9 11 0 6 -9 22 -19 35 -27 34 -27 119 0 148 14
15 18 16 14 4 -4 -9 0 -27 9 -40 18 -27 29 -71 29 -115 0 -24 4 -30 12 -23 17
14 25 2 19 -29 -2 -14 -7 -57 -9 -96 -3 -38 -7 -88 -11 -110 -5 -40 -5 -40 44
-62 57 -26 97 -29 118 -9 19 19 18 40 -1 32 -8 -3 -15 -1 -15 4 0 6 10 10 21
10 18 0 19 2 9 15 -11 13 -6 15 38 15 41 0 53 -4 62 -20 9 -16 18 -19 55 -15
25 2 47 -1 50 -6 4 -5 19 -9 36 -9 16 0 29 -4 29 -10 0 -5 9 -10 19 -10 11 0
23 -4 26 -10 3 -5 17 -10 30 -10 l25 0 -21 38 c-12 20 -27 41 -35 45 -19 11
-18 27 1 27 8 0 14 3 14 8 -5 32 3 42 36 42 35 0 47 -13 23 -24 -10 -5 -10 -7
0 -12 6 -3 10 -9 7 -14 -3 -5 4 -12 16 -15 11 -4 18 -12 16 -18 -2 -7 2 -18 9
-25 8 -7 14 -10 14 -6 0 3 6 1 14 -5 8 -7 35 -9 77 -5 77 8 103 18 70 29 -11
3 -18 11 -15 17 4 5 -3 23 -15 39 -11 15 -21 35 -21 42 0 8 -9 26 -21 41 -20
25 -22 26 -35 9 -9 -13 -16 -15 -21 -7 -5 7 -17 13 -28 15 -31 6 -24 32 13 50
19 8 33 18 33 22 -2 19 -33 67 -44 67 -8 0 -8 3 2 9 11 7 10 11 -7 20 -11 6
-29 8 -39 5 -15 -5 -15 -4 -3 5 8 6 11 11 5 11 -5 0 -2 7 8 14 16 12 16 14 1
20 -8 3 -28 3 -42 0 -22 -5 -25 -4 -14 7 23 24 14 53 -22 73 -36 19 -40 48 -5
39 20 -6 27 11 9 22 -6 3 -7 17 -4 31 4 16 1 26 -9 30 -12 4 -13 12 -7 35 5
17 5 29 -1 29 -5 0 -9 9 -9 19 0 10 -7 21 -15 25 -11 4 -15 -2 -15 -22 0 -15
-5 -34 -10 -42 -7 -11 -10 2 -10 43 0 42 4 57 14 57 10 0 12 11 8 48 -2 26 -6
49 -8 51 -9 10 -34 -36 -30 -56 3 -20 -1 -23 -33 -24 -109 -3 -155 -10 -195
-28 -47 -20 -81 -61 -51 -61 8 0 15 5 15 10 0 6 5 10 11 10 5 0 7 -6 3 -12 -5
-8 0 -7 11 2 11 9 16 10 11 3 -9 -16 -2 -16 32 0 32 16 72 2 64 -23 -3 -12 -2
-12 8 -3 10 9 20 8 46 -5 42 -20 43 -27 2 -42 -18 -7 -27 -14 -21 -17 7 -2 26
2 43 10 26 13 30 13 30 1 0 -8 6 -14 13 -14 6 0 -3 -8 -20 -16 -31 -16 -44
-34 -24 -34 6 0 8 -9 6 -19 -2 -10 4 -27 14 -38 10 -10 20 -27 23 -38 3 -11 9
-27 12 -36 6 -13 -3 -19 -38 -29 -25 -7 -55 -10 -66 -7 -12 3 -20 0 -20 -8 0
-17 -41 -27 -57 -13 -29 24 -120 5 -180 -38 -23 -16 -23 -16 -17 12 11 58 8
118 -6 109 -10 -6 -9 -5 24 69 12 27 14 42 7 49 -16 16 -13 37 4 37 9 0 12 -6
9 -15 -4 -8 -1 -15 5 -15 6 0 11 5 11 11 0 5 5 7 10 4 6 -3 10 1 10 11 0 9 7
22 17 29 19 14 9 37 -12 28 -19 -7 -20 27 -2 46 10 11 8 11 -10 0 -12 -7 -25
-11 -28 -8 -8 9 6 40 16 34 4 -3 15 6 24 19 11 16 32 29 58 35 34 7 37 9 14
10 -16 1 -37 -4 -48 -10 -19 -10 -19 -9 -9 10 9 17 8 21 -5 22 -8 1 -21 2 -27
3 -8 1 -13 14 -12 31 0 35 24 105 36 105 4 0 5 7 2 15 -4 8 1 17 9 21 9 3 13
13 10 25 -4 13 2 25 16 35 22 16 28 34 11 34 -5 0 -24 -24 -43 -52z m183 -283
c0 -8 -7 -15 -15 -15 -9 0 -12 6 -9 15 4 8 10 15 15 15 5 0 9 -7 9 -15z m-289
-130 c5 4 9 -5 9 -19 0 -16 -6 -26 -14 -26 -8 0 -16 -6 -19 -12 -2 -7 -6 -1
-9 15 -3 15 -1 27 3 27 5 0 10 12 10 28 2 23 2 24 6 4 2 -12 9 -20 14 -17z
m-51 -6 c0 -11 -4 -18 -9 -14 -5 3 -12 -3 -15 -12 -3 -11 -4 -8 -3 7 2 21 13
39 25 40 1 0 2 -9 2 -21z m-469 -56 c13 -16 12 -17 -3 -4 -10 7 -18 15 -18 17
0 8 8 3 21 -13z m319 -15 c0 -9 -22 -10 -44 -2 -12 4 -12 9 -3 19 9 9 16 9 29
1 10 -6 18 -14 18 -18z m-185 -19 c16 -16 -30 -10 -51 6 -18 14 -17 15 11 9
17 -4 34 -11 40 -15z m-177 -7 c6 -18 -15 -14 -22 4 -4 10 -1 14 6 12 6 -2 14
-10 16 -16z m367 -51 c-3 -5 -1 -12 3 -15 16 -10 1 -51 -23 -62 -20 -10 -22
-9 -17 5 3 9 14 24 25 34 20 17 20 17 -1 17 -22 0 -28 10 -15 23 10 11 35 8
28 -2z m387 -148 c24 -22 24 -83 -2 -115 -10 -14 -16 -29 -12 -32 4 -4 3 -7
-3 -5 -5 1 -23 -3 -39 -10 -59 -24 -145 33 -131 89 7 25 51 69 71 70 6 0 17 7
25 16 15 19 63 12 91 -13z m121 1 c35 -5 44 -10 40 -22 -5 -11 -3 -13 7 -7 15
9 12 2 -19 -47 -13 -23 -31 -38 -42 -38 -10 0 -19 -3 -19 -8 0 -4 -8 -12 -18
-17 -10 -6 -35 -19 -55 -29 -20 -11 -39 -28 -43 -38 -3 -10 -12 -18 -20 -18
-8 0 -13 -4 -10 -9 3 -5 -1 -15 -10 -22 -11 -9 -18 -9 -22 -2 -5 7 -11 6 -20
-3 -10 -12 -10 -14 3 -14 8 0 15 -4 15 -10 0 -14 -30 -12 -35 3 -3 6 -6 28 -7
47 l-3 35 53 6 c54 7 98 39 85 63 -3 6 -3 8 2 4 11 -11 45 67 45 103 0 32 2
32 73 23z m-415 -32 c2 -7 -2 -10 -12 -6 -9 3 -16 11 -16 16 0 13 23 5 28 -10z
m617 7 c12 -18 -3 -22 -20 -5 -14 14 -14 16 -1 16 8 0 18 -5 21 -11z m-80 -79
c-3 -5 -11 -10 -16 -10 -6 0 -7 5 -4 10 3 6 11 10 16 10 6 0 7 -4 4 -10z m3
-37 c-24 -6 -22 -18 5 -31 12 -6 16 -11 9 -11 -7 -1 -10 -5 -7 -11 6 -10 -57
-53 -92 -62 -30 -8 -29 8 2 28 14 9 25 25 25 35 0 33 23 59 50 58 17 -1 19 -3
8 -6z m236 -42 c-7 -7 -34 21 -28 31 3 5 12 1 19 -9 7 -10 12 -20 9 -22z m-81
-1 c3 -11 1 -20 -4 -20 -4 0 -13 9 -19 20 -8 16 -8 20 3 20 8 0 17 -9 20 -20z
m-307 -15 c-8 -8 -24 -15 -36 -15 -11 0 -30 -9 -42 -20 -12 -11 -25 -20 -30
-20 -14 0 -9 48 6 53 10 4 13 1 9 -9 -8 -22 15 -17 27 6 8 14 21 20 46 20 31
0 34 -2 20 -15z m34 -45 c0 -5 -4 -10 -10 -10 -5 0 -10 5 -10 10 0 6 5 10 10
10 6 0 10 -4 10 -10z m277 -6 c-3 -3 -12 -4 -19 -1 -8 3 -5 6 6 6 11 1 17 -2
13 -5z"/>
<path d="M10885 1410 c-4 -6 -16 -8 -27 -4 -18 5 -19 4 -7 -18 21 -41 54 -51
64 -19 10 34 -14 67 -30 41z"/>
<path d="M11089 1393 c-13 -16 -12 -17 4 -4 16 13 21 21 13 21 -2 0 -10 -8
-17 -17z"/>
<path d="M1815 2200 c-3 -6 1 -7 9 -4 18 7 21 14 7 14 -6 0 -13 -4 -16 -10z"/>
<path d="M1933 2175 c0 -22 2 -30 4 -17 2 12 2 30 0 40 -3 9 -5 -1 -4 -23z"/>
<path d="M1962 2204 c10 -3 19 -19 21 -37 4 -31 5 -31 3 3 -1 27 -5 35 -21 37
-14 1 -15 0 -3 -3z"/>
<path d="M2103 2175 c0 -22 2 -30 4 -17 2 12 2 30 0 40 -3 9 -5 -1 -4 -23z"/>
<path d="M2157 2203 c-3 -5 5 -8 18 -8 13 0 21 3 18 8 -2 4 -10 7 -18 7 -8 0
-16 -3 -18 -7z"/>
<path d="M2238 2203 c7 -3 16 -2 19 1 4 3 -2 6 -13 5 -11 0 -14 -3 -6 -6z"/>
<path d="M2422 2204 c10 -3 19 -19 21 -37 4 -31 5 -31 3 3 -1 27 -5 35 -21 37
-14 1 -15 0 -3 -3z"/>
<path d="M2460 2206 c0 -2 7 -7 16 -10 8 -3 12 -2 9 4 -6 10 -25 14 -25 6z"/>
<path d="M2565 2200 c-3 -6 1 -7 9 -4 18 7 21 14 7 14 -6 0 -13 -4 -16 -10z"/>
<path d="M2645 2199 c-4 -6 -4 -13 -1 -16 3 -4 6 -1 6 5 0 6 8 13 18 15 15 4
15 5 0 6 -9 0 -20 -4 -23 -10z"/>
<path d="M2765 2199 c-4 -6 -4 -13 -1 -16 3 -4 6 -1 6 5 0 6 8 13 18 15 15 4
15 5 0 6 -9 0 -20 -4 -23 -10z"/>
<path d="M2843 2175 c0 -22 2 -30 4 -17 2 12 2 30 0 40 -3 9 -5 -1 -4 -23z"/>
<path d="M2935 2200 c-8 -13 3 -30 18 -29 9 0 9 2 0 6 -18 7 -16 21 5 26 15 4
15 5 0 6 -9 0 -20 -3 -23 -9z"/>
<path d="M3136 2201 c-4 -5 3 -7 14 -4 23 6 26 13 6 13 -8 0 -17 -4 -20 -9z"/>
<path d="M3252 2196 c7 -8 15 -12 17 -11 5 6 -10 25 -20 25 -5 0 -4 -6 3 -14z"/>
<path d="M3292 2204 c10 -3 19 -19 21 -37 4 -31 5 -31 3 3 -1 27 -5 35 -21 37
-14 1 -15 0 -3 -3z"/>
<path d="M3356 2201 c-4 -5 3 -7 14 -4 23 6 26 13 6 13 -8 0 -17 -4 -20 -9z"/>
<path d="M3547 2203 c-3 -5 5 -8 18 -8 13 0 21 3 18 8 -2 4 -10 7 -18 7 -8 0
-16 -3 -18 -7z"/>
<path d="M3732 2196 c7 -8 15 -12 17 -11 5 6 -10 25 -20 25 -5 0 -4 -6 3 -14z"/>
<path d="M3785 2199 c-4 -6 -4 -13 -1 -16 3 -4 6 -1 6 6 0 8 8 11 20 8 11 -3
18 -1 14 4 -7 12 -31 11 -39 -2z"/>
<path d="M3937 2203 c-3 -5 5 -8 18 -8 13 0 21 3 18 8 -2 4 -10 7 -18 7 -8 0
-16 -3 -18 -7z"/>
<path d="M4066 2201 c-4 -5 3 -7 14 -4 23 6 26 13 6 13 -8 0 -17 -4 -20 -9z"/>
<path d="M4285 2200 c-3 -6 1 -7 9 -4 18 7 21 14 7 14 -6 0 -13 -4 -16 -10z"/>
<path d="M4366 2201 c-3 -5 3 -7 14 -4 11 3 20 0 20 -6 0 -6 -8 -11 -17 -12
-14 0 -15 -2 -3 -6 8 -3 19 -11 23 -17 4 -6 6 2 5 19 -3 30 -30 47 -42 26z"/>
<path d="M4445 2200 c-3 -6 1 -7 9 -4 18 7 21 14 7 14 -6 0 -13 -4 -16 -10z"/>
<path d="M4653 2175 c0 -22 2 -30 4 -17 2 12 2 30 0 40 -3 9 -5 -1 -4 -23z"/>
<path d="M4708 2203 c7 -3 16 -2 19 1 4 3 -2 6 -13 5 -11 0 -14 -3 -6 -6z"/>
<path d="M4777 2203 c-3 -5 5 -8 18 -8 13 0 21 3 18 8 -2 4 -10 7 -18 7 -8 0
-16 -3 -18 -7z"/>
<path d="M4918 2203 c7 -3 16 -2 19 1 4 3 -2 6 -13 5 -11 0 -14 -3 -6 -6z"/>
<path d="M5096 2201 c-4 -5 3 -7 14 -4 23 6 26 13 6 13 -8 0 -17 -4 -20 -9z"/>
<path d="M5378 2203 c7 -3 16 -2 19 1 4 3 -2 6 -13 5 -11 0 -14 -3 -6 -6z"/>
<path d="M5446 2201 c-4 -5 3 -7 14 -4 23 6 26 13 6 13 -8 0 -17 -4 -20 -9z"/>
<path d="M5727 2203 c-3 -5 5 -8 18 -8 13 0 21 3 18 8 -2 4 -10 7 -18 7 -8 0
-16 -3 -18 -7z"/>
<path d="M2304 2170 c1 -20 6 -25 29 -26 24 -1 27 2 26 30 -1 29 -1 30 -8 6
-9 -33 -38 -39 -44 -8 -4 21 -4 21 -3 -2z"/>
<path d="M2392 2170 c0 -19 2 -27 5 -17 2 9 2 25 0 35 -3 9 -5 1 -5 -18z"/>
<path d="M4573 2155 c0 -27 2 -38 4 -22 2 15 2 37 0 50 -2 12 -4 0 -4 -28z"/>
<path d="M4892 2170 c0 -19 2 -27 5 -17 2 9 2 25 0 35 -3 9 -5 1 -5 -18z"/>
<path d="M1724 2165 c1 -13 8 -20 24 -21 17 -1 18 -1 3 3 -11 2 -22 12 -24 21
-3 12 -4 11 -3 -3z"/>
<path d="M1771 2174 c0 -11 3 -14 6 -6 3 7 2 16 -1 19 -3 4 -6 -2 -5 -13z"/>
<path d="M1850 2175 c0 -8 9 -10 25 -7 14 2 25 6 25 7 0 1 -11 5 -25 7 -16 3
-25 1 -25 -7z"/>
<path d="M2691 2174 c0 -11 3 -14 6 -6 3 7 2 16 -1 19 -3 4 -6 -2 -5 -13z"/>
<path d="M2811 2174 c0 -11 3 -14 6 -6 3 7 2 16 -1 19 -3 4 -6 -2 -5 -13z"/>
<path d="M3365 2180 l-30 -8 33 -1 c17 0 32 4 32 9 0 6 -1 9 -2 9 -2 -1 -16
-5 -33 -9z"/>
<path d="M3614 2165 c1 -13 8 -20 24 -21 17 -1 18 -1 3 3 -11 2 -22 12 -24 21
-3 12 -4 11 -3 -3z"/>
<path d="M3661 2174 c0 -11 3 -14 6 -6 3 7 2 16 -1 19 -3 4 -6 -2 -5 -13z"/>
<path d="M3850 2175 c0 -8 9 -10 25 -7 14 2 25 6 25 7 0 1 -11 5 -25 7 -16 3
-25 1 -25 -7z"/>
<path d="M4075 2180 l-30 -8 33 -1 c17 0 32 4 32 9 0 6 -1 9 -2 9 -2 -1 -16
-5 -33 -9z"/>
<path d="M4621 2174 c0 -11 3 -14 6 -6 3 7 2 16 -1 19 -3 4 -6 -2 -5 -13z"/>
<path d="M4942 2165 c0 -16 2 -22 5 -12 2 9 2 23 0 30 -3 6 -5 -1 -5 -18z"/>
<path d="M5110 2180 l-25 -8 28 -1 c15 -1 27 4 27 9 0 6 -1 10 -2 9 -2 -1 -14
-5 -28 -9z"/>
<path d="M5460 2180 l-25 -8 28 -1 c15 -1 27 4 27 9 0 6 -1 10 -2 9 -2 -1 -14
-5 -28 -9z"/>
<path d="M5511 2174 c0 -11 3 -14 6 -6 3 7 2 16 -1 19 -3 4 -6 -2 -5 -13z"/>
<path d="M5631 2174 c0 -11 3 -14 6 -6 3 7 2 16 -1 19 -3 4 -6 -2 -5 -13z"/>
<path d="M2032 2160 c0 -14 2 -19 5 -12 2 6 2 18 0 25 -3 6 -5 1 -5 -13z"/>
<path d="M3135 2170 c-3 -5 -3 -14 0 -20 8 -12 32 -13 39 -1 4 5 -3 7 -14 4
-11 -3 -20 -1 -20 5 0 6 10 13 23 15 22 4 22 4 0 6 -12 0 -25 -3 -28 -9z"/>
<path d="M2643 2160 c2 -8 12 -16 23 -17 13 -2 15 -1 4 4 -8 3 -19 11 -23 17
-6 7 -7 6 -4 -4z"/>
<path d="M2763 2160 c2 -8 12 -16 23 -17 13 -2 15 -1 4 4 -8 3 -19 11 -23 17
-6 7 -7 6 -4 -4z"/>
<path d="M2970 2162 c0 -7 -10 -13 -22 -13 -19 -1 -20 -2 -4 -6 20 -5 44 12
33 24 -4 3 -7 1 -7 -5z"/>
<path d="M3820 2162 c0 -6 -8 -13 -17 -15 -16 -4 -16 -5 -1 -6 18 -1 34 16 24
26 -3 4 -6 1 -6 -5z"/>
<path d="M4988 2163 c7 -3 16 -2 19 1 4 3 -2 6 -13 5 -11 0 -14 -3 -6 -6z"/>
<path d="M2157 2148 c2 -5 10 -8 18 -8 8 0 16 3 18 8 3 4 -5 7 -18 7 -13 0
-21 -3 -18 -7z"/>
<path d="M2228 2148 c6 -6 18 -8 28 -6 14 3 12 5 -9 10 -19 3 -25 2 -19 -4z"/>
<path d="M2567 2148 c2 -5 10 -8 18 -8 8 0 16 3 18 8 3 4 -5 7 -18 7 -13 0
-21 -3 -18 -7z"/>
<path d="M3375 2150 c-16 -7 -17 -9 -3 -9 9 -1 20 4 23 9 7 11 7 11 -20 0z"/>
<path d="M3547 2148 c2 -5 10 -8 18 -8 8 0 16 3 18 8 3 4 -5 7 -18 7 -13 0
-21 -3 -18 -7z"/>
<path d="M3937 2148 c2 -5 10 -8 18 -8 8 0 16 3 18 8 3 4 -5 7 -18 7 -13 0
-21 -3 -18 -7z"/>
<path d="M4085 2150 c-16 -7 -17 -9 -3 -9 9 -1 20 4 23 9 7 11 7 11 -20 0z"/>
<path d="M4447 2148 c2 -5 10 -8 18 -8 8 0 16 3 18 8 3 4 -5 7 -18 7 -13 0
-21 -3 -18 -7z"/>
<path d="M4698 2148 c6 -6 18 -8 28 -6 14 3 12 5 -9 10 -19 3 -25 2 -19 -4z"/>
<path d="M4777 2148 c2 -5 10 -8 18 -8 8 0 16 3 18 8 3 4 -5 7 -18 7 -13 0
-21 -3 -18 -7z"/>
<path d="M5097 2148 c2 -5 10 -8 18 -8 8 0 16 3 18 8 3 4 -5 7 -18 7 -13 0
-21 -3 -18 -7z"/>
<path d="M5368 2148 c6 -6 18 -8 28 -6 14 3 12 5 -9 10 -19 3 -25 2 -19 -4z"/>
<path d="M5447 2148 c2 -5 10 -8 18 -8 8 0 16 3 18 8 3 4 -5 7 -18 7 -13 0
-21 -3 -18 -7z"/>
<path d="M5727 2148 c2 -5 10 -8 18 -8 8 0 16 3 18 8 3 4 -5 7 -18 7 -13 0
-21 -3 -18 -7z"/>
<path d="M1868 2143 c7 -3 16 -2 19 1 4 3 -2 6 -13 5 -11 0 -14 -3 -6 -6z"/>
<path d="M3058 2143 c7 -3 16 -2 19 1 4 3 -2 6 -13 5 -11 0 -14 -3 -6 -6z"/>
<path d="M3868 2143 c7 -3 16 -2 19 1 4 3 -2 6 -13 5 -11 0 -14 -3 -6 -6z"/>
<path d="M4198 2143 c7 -3 16 -2 19 1 4 3 -2 6 -13 5 -11 0 -14 -3 -6 -6z"/>
<path d="M4368 2143 c7 -3 16 -2 19 1 4 3 -2 6 -13 5 -11 0 -14 -3 -6 -6z"/>
<path d="M4988 2143 c6 -2 18 -2 25 0 6 3 1 5 -13 5 -14 0 -19 -2 -12 -5z"/>
<path d="M11160 2091 c-7 -15 -7 -21 0 -21 12 0 25 28 17 36 -3 3 -10 -4 -17
-15z"/>
<path d="M11175 2061 c-3 -5 -1 -12 5 -16 5 -3 10 1 10 9 0 18 -6 21 -15 7z"/>
<path d="M1666 2031 c-4 -5 3 -7 14 -4 23 6 26 13 6 13 -8 0 -17 -4 -20 -9z"/>
<path d="M1865 2029 c-4 -6 -4 -13 -1 -16 3 -4 6 -1 6 5 0 6 8 13 18 15 15 4
15 5 0 6 -9 0 -20 -4 -23 -10z"/>
<path d="M1972 2034 c10 -3 19 -19 21 -37 4 -31 5 -31 3 3 -1 27 -5 35 -21 37
-14 1 -15 0 -3 -3z"/>
<path d="M2010 2036 c0 -2 7 -7 16 -10 8 -3 12 -2 9 4 -6 10 -25 14 -25 6z"/>
<path d="M2075 2029 c-4 -6 -4 -13 -1 -16 3 -4 6 -1 6 5 0 6 8 13 18 15 15 4
15 5 0 6 -9 0 -20 -4 -23 -10z"/>
<path d="M2157 2033 c-3 -5 5 -8 18 -8 13 0 21 3 18 8 -2 4 -10 7 -18 7 -8 0
-16 -3 -18 -7z"/>
<path d="M2432 2034 c10 -3 19 -19 21 -37 4 -31 5 -31 3 3 -1 27 -5 35 -21 37
-14 1 -15 0 -3 -3z"/>
<path d="M2470 2036 c0 -2 7 -7 16 -10 8 -3 12 -2 9 4 -6 10 -25 14 -25 6z"/>
<path d="M2547 2033 c-3 -5 5 -8 18 -8 13 0 21 3 18 8 -2 4 -10 7 -18 7 -8 0
-16 -3 -18 -7z"/>
<path d="M2627 2033 c-3 -5 5 -8 18 -8 13 0 21 3 18 8 -2 4 -10 7 -18 7 -8 0
-16 -3 -18 -7z"/>
<path d="M1942 2000 c0 -19 2 -27 5 -17 2 9 2 25 0 35 -3 9 -5 1 -5 -18z"/>
<path d="M2402 2000 c0 -19 2 -27 5 -17 2 9 2 25 0 35 -3 9 -5 1 -5 -18z"/>
<path d="M1675 2010 l-30 -8 33 -1 c17 0 32 4 32 9 0 6 -1 9 -2 9 -2 -1 -16
-5 -33 -9z"/>
<path d="M2121 2004 c0 -11 3 -14 6 -6 3 7 2 16 -1 19 -3 4 -6 -2 -5 -13z"/>
<path d="M2320 2005 c0 -8 9 -10 25 -7 14 2 25 6 25 7 0 1 -11 5 -25 7 -16 3
-25 1 -25 -7z"/>
<path d="M1880 2006 c0 -2 7 -7 16 -10 8 -3 12 -2 9 4 -6 10 -25 14 -25 6z"/>
<path d="M2073 1990 c2 -8 12 -16 23 -17 13 -2 15 -1 4 4 -8 3 -19 11 -23 17
-6 7 -7 6 -4 -4z"/>
<path d="M9700 1979 c-1 -13 -1 -37 -1 -52 -1 -48 12 -117 22 -117 12 0 8 101
-5 120 -10 13 -9 13 7 1 14 -11 21 -11 29 -3 9 9 8 12 -5 12 -9 0 -17 6 -17
13 0 6 -7 21 -15 31 -15 19 -15 19 -15 -5z"/>
<path d="M1685 1980 c-16 -7 -17 -9 -3 -9 9 -1 20 4 23 9 7 11 7 11 -20 0z"/>
<path d="M1868 1978 c5 -5 16 -8 23 -6 8 3 3 7 -10 11 -17 4 -21 3 -13 -5z"/>
<path d="M2157 1978 c2 -5 10 -8 18 -8 8 0 16 3 18 8 3 4 -5 7 -18 7 -13 0
-21 -3 -18 -7z"/>
<path d="M2547 1978 c2 -5 10 -8 18 -8 8 0 16 3 18 8 3 4 -5 7 -18 7 -13 0
-21 -3 -18 -7z"/>
<path d="M2627 1978 c2 -5 10 -8 18 -8 8 0 16 3 18 8 3 4 -5 7 -18 7 -13 0
-21 -3 -18 -7z"/>
<path d="M1788 1973 c7 -3 16 -2 19 1 4 3 -2 6 -13 5 -11 0 -14 -3 -6 -6z"/>
<path d="M2338 1973 c7 -3 16 -2 19 1 4 3 -2 6 -13 5 -11 0 -14 -3 -6 -6z"/>
<path d="M1953 1850 c0 -30 2 -43 4 -27 2 15 2 39 0 55 -2 15 -4 2 -4 -28z"/>
<path d="M4183 1850 c0 -30 2 -43 4 -27 2 15 2 39 0 55 -2 15 -4 2 -4 -28z"/>
<path d="M2083 1845 c0 -27 2 -38 4 -22 2 15 2 37 0 50 -2 12 -4 0 -4 -28z"/>
<path d="M2472 1851 c2 -29 8 -46 18 -48 12 -4 13 -3 1 5 -8 6 -12 20 -9 35 3
14 1 32 -4 39 -5 8 -7 -3 -6 -31z"/>
<path d="M3213 1845 c0 -27 2 -38 4 -22 2 15 2 37 0 50 -2 12 -4 0 -4 -28z"/>
<path d="M4595 1880 c-3 -5 -1 -10 4 -10 6 0 11 5 11 10 0 6 -2 10 -4 10 -3 0
-8 -4 -11 -10z"/>
<path d="M4662 1851 c2 -29 8 -46 18 -48 12 -4 13 -3 1 5 -8 6 -12 20 -9 35 3
14 1 32 -4 39 -5 8 -7 -3 -6 -31z"/>
<path d="M5183 1845 c0 -27 2 -38 4 -22 2 15 2 37 0 50 -2 12 -4 0 -4 -28z"/>
<path d="M5473 1845 c0 -27 2 -38 4 -22 2 15 2 37 0 50 -2 12 -4 0 -4 -28z"/>
<path d="M3850 1871 c-14 -4 -26 -15 -28 -24 -4 -20 25 -34 40 -19 8 8 5 9
-11 5 -15 -4 -21 -1 -21 12 0 12 6 16 19 12 12 -3 22 1 25 9 3 8 4 14 3 13 -1
-1 -13 -4 -27 -8z"/>
<path d="M1663 1835 c0 -22 2 -30 4 -17 2 12 2 30 0 40 -3 9 -5 -1 -4 -23z"/>
<path d="M1701 1830 c1 -34 2 -34 8 -6 3 16 15 33 26 37 17 6 15 7 -7 6 -25
-1 -28 -5 -27 -37z"/>
<path d="M1796 1861 c-4 -5 3 -7 14 -4 23 6 26 13 6 13 -8 0 -17 -4 -20 -9z"/>
<path d="M1993 1835 c0 -22 2 -30 4 -17 2 12 2 30 0 40 -3 9 -5 -1 -4 -23z"/>
<path d="M2048 1863 c7 -3 16 -2 19 1 4 3 -2 6 -13 5 -11 0 -14 -3 -6 -6z"/>
<path d="M2230 1866 c0 -2 7 -7 16 -10 8 -3 12 -2 9 4 -6 10 -25 14 -25 6z"/>
<path d="M2606 1861 c-3 -5 3 -7 14 -4 11 3 20 1 20 -5 0 -6 -8 -13 -17 -15
-16 -4 -16 -5 -1 -6 9 0 19 -9 22 -18 2 -10 4 -2 3 17 -2 34 -27 54 -41 31z"/>
<path d="M2700 1866 c0 -2 7 -7 16 -10 8 -3 12 -2 9 4 -6 10 -25 14 -25 6z"/>
<path d="M2767 1863 c-3 -5 5 -8 18 -8 13 0 21 3 18 8 -2 4 -10 7 -18 7 -8 0
-16 -3 -18 -7z"/>
<path d="M2843 1835 c0 -22 2 -30 4 -17 2 12 2 30 0 40 -3 9 -5 -1 -4 -23z"/>
<path d="M2897 1863 c-4 -3 -7 -17 -7 -30 0 -26 26 -41 42 -25 8 8 5 9 -11 5
-11 -3 -21 -1 -21 5 0 6 10 13 23 15 l22 4 -22 2 c-13 0 -23 6 -23 12 0 6 9 9
20 6 11 -3 18 -1 14 4 -6 11 -28 12 -37 2z"/>
<path d="M3006 1861 c-3 -5 3 -7 14 -4 11 3 20 1 20 -5 0 -6 -10 -13 -22 -15
-19 -4 -18 -5 5 -6 22 -1 28 3 25 16 -4 20 -33 29 -42 14z"/>
<path d="M3178 1863 c7 -3 16 -2 19 1 4 3 -2 6 -13 5 -11 0 -14 -3 -6 -6z"/>
<path d="M3257 1863 c-3 -5 5 -8 18 -8 13 0 21 3 18 8 -2 4 -10 7 -18 7 -8 0
-16 -3 -18 -7z"/>
<path d="M3377 1863 c-3 -5 5 -8 18 -8 13 0 21 3 18 8 -2 4 -10 7 -18 7 -8 0
-16 -3 -18 -7z"/>
<path d="M3506 1861 c-4 -5 3 -7 14 -4 23 6 26 13 6 13 -8 0 -17 -4 -20 -9z"/>
<path d="M3642 1859 c7 -5 21 -6 32 -3 10 4 23 0 28 -7 8 -11 9 -11 5 1 -2 10
-17 15 -41 16 -24 1 -33 -2 -24 -7z"/>
<path d="M3746 1861 c-3 -5 3 -7 14 -4 11 3 20 0 20 -6 0 -6 -8 -11 -17 -12
-14 0 -15 -2 -3 -6 8 -3 19 -11 23 -17 4 -6 6 2 5 19 -3 30 -30 47 -42 26z"/>
<path d="M3903 1835 c0 -22 2 -30 4 -17 2 12 2 30 0 40 -3 9 -5 -1 -4 -23z"/>
<path d="M3928 1863 c7 -3 16 -2 19 1 4 3 -2 6 -13 5 -11 0 -14 -3 -6 -6z"/>
<path d="M3996 1861 c-3 -5 3 -7 14 -4 11 3 20 1 20 -5 0 -6 -8 -13 -17 -15
-16 -4 -16 -5 -1 -6 9 0 19 -9 22 -18 2 -10 4 -2 3 17 -2 34 -27 54 -41 31z"/>
<path d="M4106 1861 c-3 -5 3 -7 14 -4 11 3 20 0 20 -6 0 -6 -8 -11 -17 -12
-14 0 -15 -2 -3 -6 8 -3 19 -11 23 -17 4 -6 6 2 5 19 -3 30 -30 47 -42 26z"/>
<path d="M4223 1835 c0 -22 2 -30 4 -17 2 12 2 30 0 40 -3 9 -5 -1 -4 -23z"/>
<path d="M4265 1859 c-4 -6 -4 -13 -1 -16 3 -4 6 -1 6 5 0 6 8 13 18 15 15 4
15 5 0 6 -9 0 -20 -4 -23 -10z"/>
<path d="M4448 1863 c7 -3 16 -2 19 1 4 3 -2 6 -13 5 -11 0 -14 -3 -6 -6z"/>
<path d="M4822 1864 c10 -3 19 -19 21 -37 4 -31 5 -31 3 3 -1 27 -5 35 -21 37
-14 1 -15 0 -3 -3z"/>
<path d="M4860 1866 c0 -2 7 -7 16 -10 8 -3 12 -2 9 4 -6 10 -25 14 -25 6z"/>
<path d="M4937 1863 c-3 -5 5 -8 18 -8 13 0 21 3 18 8 -2 4 -10 7 -18 7 -8 0
-16 -3 -18 -7z"/>
<path d="M5016 1861 c-4 -5 3 -7 14 -4 23 6 26 13 6 13 -8 0 -17 -4 -20 -9z"/>
<path d="M5083 1835 c0 -22 2 -30 4 -17 2 12 2 30 0 40 -3 9 -5 -1 -4 -23z"/>
<path d="M5148 1863 c7 -3 16 -2 19 1 4 3 -2 6 -13 5 -11 0 -14 -3 -6 -6z"/>
<path d="M5223 1835 c0 -22 2 -30 4 -17 2 12 2 30 0 40 -3 9 -5 -1 -4 -23z"/>
<path d="M5266 1861 c-4 -5 3 -7 14 -4 23 6 26 13 6 13 -8 0 -17 -4 -20 -9z"/>
<path d="M5438 1863 c7 -3 16 -2 19 1 4 3 -2 6 -13 5 -11 0 -14 -3 -6 -6z"/>
<path d="M2384 1830 c1 -20 6 -25 29 -26 24 -1 27 2 26 30 -1 29 -1 30 -8 6
-9 -33 -38 -39 -44 -8 -4 21 -4 21 -3 -2z"/>
<path d="M4313 1815 c0 -27 2 -38 4 -22 2 15 2 37 0 50 -2 12 -4 0 -4 -28z"/>
<path d="M4792 1830 c0 -19 2 -27 5 -17 2 9 2 25 0 35 -3 9 -5 1 -5 -18z"/>
<path d="M5514 1830 c1 -20 6 -25 29 -26 24 -1 27 2 26 30 -1 29 -1 30 -8 6
-9 -33 -38 -39 -44 -8 -4 21 -4 21 -3 -2z"/>
<path d="M8598 1852 c-10 -2 -18 -12 -18 -23 0 -14 6 -19 18 -17 9 1 23 -1 30
-5 7 -5 21 -5 33 -2 29 9 20 40 -11 40 -14 0 -27 2 -30 5 -3 3 -13 4 -22 2z"/>
<path d="M1752 1825 c0 -16 2 -22 5 -12 2 9 2 23 0 30 -3 6 -5 -1 -5 -18z"/>
<path d="M1901 1834 c0 -11 3 -14 6 -6 3 7 2 16 -1 19 -3 4 -6 -2 -5 -13z"/>
<path d="M2034 1825 c1 -12 9 -21 21 -22 14 -1 15 0 3 3 -9 3 -19 13 -21 22
-3 12 -4 11 -3 -3z"/>
<path d="M3164 1825 c1 -12 9 -21 21 -22 14 -1 15 0 3 3 -9 3 -19 13 -21 22
-3 12 -4 11 -3 -3z"/>
<path d="M3515 1840 l-30 -8 33 -1 c17 0 32 4 32 9 0 6 -1 9 -2 9 -2 -1 -16
-5 -33 -9z"/>
<path d="M3952 1825 c0 -16 2 -22 5 -12 2 9 2 23 0 30 -3 6 -5 -1 -5 -18z"/>
<path d="M5025 1840 l-30 -8 33 -1 c17 0 32 4 32 9 0 6 -1 9 -2 9 -2 -1 -16
-5 -33 -9z"/>
<path d="M5134 1825 c1 -12 9 -21 21 -22 14 -1 15 0 3 3 -9 3 -19 13 -21 22
-3 12 -4 11 -3 -3z"/>
<path d="M5280 1840 l-25 -8 28 -1 c15 -1 27 4 27 9 0 6 -1 10 -2 9 -2 -1 -14
-5 -28 -9z"/>
<path d="M5424 1825 c1 -12 9 -21 21 -22 14 -1 15 0 3 3 -9 3 -19 13 -21 22
-3 12 -4 11 -3 -3z"/>
<path d="M8713 1835 c-3 -9 -3 -18 0 -21 9 -9 27 6 27 22 0 19 -19 18 -27 -1z"/>
<path d="M4435 1830 c-9 -15 4 -30 23 -29 15 1 15 2 0 6 -25 6 -22 21 5 26 22
4 22 4 0 6 -12 0 -25 -3 -28 -9z"/>
<path d="M4263 1820 c2 -8 12 -16 23 -17 13 -2 15 -1 4 4 -8 3 -19 11 -23 17
-6 7 -7 6 -4 -4z"/>
<path d="M1797 1808 c2 -5 10 -8 18 -8 8 0 16 3 18 8 3 4 -5 7 -18 7 -13 0
-21 -3 -18 -7z"/>
<path d="M2127 1808 c2 -5 10 -8 18 -8 8 0 16 3 18 8 3 4 -5 7 -18 7 -13 0
-21 -3 -18 -7z"/>
<path d="M2687 1808 c2 -5 10 -8 18 -8 8 0 16 3 18 8 3 4 -5 7 -18 7 -13 0
-21 -3 -18 -7z"/>
<path d="M2767 1808 c2 -5 10 -8 18 -8 8 0 16 3 18 8 3 4 -5 7 -18 7 -13 0
-21 -3 -18 -7z"/>
<path d="M3007 1808 c2 -5 10 -8 18 -8 8 0 16 3 18 8 3 4 -5 7 -18 7 -13 0
-21 -3 -18 -7z"/>
<path d="M3257 1808 c2 -5 10 -8 18 -8 8 0 16 3 18 8 3 4 -5 7 -18 7 -13 0
-21 -3 -18 -7z"/>
<path d="M3377 1808 c2 -5 10 -8 18 -8 8 0 16 3 18 8 3 4 -5 7 -18 7 -13 0
-21 -3 -18 -7z"/>
<path d="M3525 1810 c-16 -7 -17 -9 -3 -9 9 -1 20 4 23 9 7 11 7 11 -20 0z"/>
<path d="M4357 1808 c2 -5 10 -8 18 -8 8 0 16 3 18 8 3 4 -5 7 -18 7 -13 0
-21 -3 -18 -7z"/>
<path d="M4937 1808 c2 -5 10 -8 18 -8 8 0 16 3 18 8 3 4 -5 7 -18 7 -13 0
-21 -3 -18 -7z"/>
<path d="M5035 1810 c-16 -7 -17 -9 -3 -9 9 -1 20 4 23 9 7 11 7 11 -20 0z"/>
<path d="M5267 1808 c2 -5 10 -8 18 -8 8 0 16 3 18 8 3 4 -5 7 -18 7 -13 0
-21 -3 -18 -7z"/>
<path d="M10980 1805 c-8 -9 -8 -15 -2 -15 12 0 26 19 19 26 -2 2 -10 -2 -17
-11z"/>
<path d="M2608 1803 c7 -3 16 -2 19 1 4 3 -2 6 -13 5 -11 0 -14 -3 -6 -6z"/>
<path d="M3088 1803 c7 -3 16 -2 19 1 4 3 -2 6 -13 5 -11 0 -14 -3 -6 -6z"/>
<path d="M3748 1803 c7 -3 16 -2 19 1 4 3 -2 6 -13 5 -11 0 -14 -3 -6 -6z"/>
<path d="M3833 1803 c9 -2 23 -2 30 0 6 3 -1 5 -18 5 -16 0 -22 -2 -12 -5z"/>
<path d="M3998 1803 c7 -3 16 -2 19 1 4 3 -2 6 -13 5 -11 0 -14 -3 -6 -6z"/>
<path d="M4108 1803 c7 -3 16 -2 19 1 4 3 -2 6 -13 5 -11 0 -14 -3 -6 -6z"/>
<path d="M5348 1803 c7 -3 16 -2 19 1 4 3 -2 6 -13 5 -11 0 -14 -3 -6 -6z"/>
<path d="M7755 1779 c5 -16 4 -19 -5 -14 -10 6 -12 1 -8 -19 4 -19 1 -26 -11
-26 -14 0 -14 -2 -1 -10 15 -9 33 7 24 22 -3 4 0 8 5 8 6 0 11 14 11 30 0 17
-5 30 -11 30 -6 0 -8 -9 -4 -21z"/>
<path d="M9005 1770 c3 -5 11 -10 16 -10 6 0 7 5 4 10 -3 6 -11 10 -16 10 -6
0 -7 -4 -4 -10z"/>
<path d="M8738 1746 c-4 -21 -3 -23 13 -13 9 6 15 17 12 24 -8 21 -20 15 -25
-11z"/>
<path d="M10894 1758 c-17 -26 -14 -46 5 -41 20 5 36 -21 24 -40 -4 -6 0 -8
10 -4 10 3 17 2 17 -4 0 -5 14 6 31 25 28 33 29 37 15 52 -9 8 -16 11 -16 7 0
-5 -7 -18 -16 -29 -15 -18 -15 -18 -5 2 8 17 7 25 -6 35 -12 10 -15 10 -9 2 9
-16 -16 -17 -31 -2 -8 8 -13 7 -19 -3z"/>
<path d="M7780 1726 c0 -13 -22 -28 -44 -30 -5 -1 -14 -10 -20 -21 -6 -11 -14
-22 -17 -25 -4 -3 -10 -20 -14 -37 -5 -25 -2 -39 14 -59 12 -15 21 -32 21 -38
0 -16 38 -38 45 -26 3 6 14 10 23 10 16 -1 16 -2 0 -14 -19 -14 -24 -36 -9
-36 6 0 13 5 16 10 4 6 11 8 16 4 6 -4 6 -11 -1 -19 -7 -8 -7 -15 -1 -19 5 -4
12 -2 16 4 9 14 26 12 24 -2 -3 -25 1 -38 12 -38 5 0 7 5 4 10 -4 6 -2 17 5
25 8 10 7 16 -5 23 -15 8 -15 11 7 34 21 23 28 25 70 18 37 -5 46 -4 38 5 -6
7 -8 19 -4 28 3 10 -2 18 -15 22 -12 3 -21 11 -21 16 0 5 -7 9 -15 9 -18 0
-20 16 -2 23 6 3 0 6 -15 6 -30 1 -39 21 -10 22 16 0 16 1 -1 8 -10 4 -18 11
-17 16 0 6 -11 11 -25 13 -14 2 -25 8 -25 13 0 5 -12 9 -27 9 -26 1 -27 2 -9
15 10 7 15 18 11 24 -9 16 -25 14 -25 -3z m90 -76 c0 -5 -7 -10 -16 -10 -8 0
-12 5 -9 10 3 6 10 10 16 10 5 0 9 -4 9 -10z m-85 -20 c-3 -5 -11 -10 -16 -10
-6 0 -7 5 -4 10 3 6 11 10 16 10 6 0 7 -4 4 -10z m-52 -72 c-7 -14 -23 -9 -23
7 0 8 -5 15 -11 15 -5 0 -7 5 -4 11 8 12 45 -21 38 -33z m83 17 c-11 -8 -22
-12 -25 -9 -6 6 19 24 34 24 6 -1 1 -7 -9 -15z m44 -15 c0 -5 -4 -10 -10 -10
-5 0 -10 5 -10 10 0 6 5 10 10 10 6 0 10 -4 10 -10z m70 -15 c0 -8 -4 -15 -9
-15 -5 0 -14 7 -21 15 -10 13 -9 15 9 15 12 0 21 -6 21 -15z m-120 -5 c0 -5
-5 -10 -11 -10 -5 0 -7 5 -4 10 3 6 8 10 11 10 2 0 4 -4 4 -10z m148 -12 c-3
-7 -13 -15 -24 -17 -16 -3 -17 -1 -5 13 16 19 34 21 29 4z m-83 -8 c-3 -5 -10
-10 -16 -10 -5 0 -9 5 -9 10 0 6 7 10 16 10 8 0 12 -4 9 -10z m-105 -10 c0 -5
-4 -10 -10 -10 -5 0 -10 5 -10 10 0 6 5 10 10 10 6 0 10 -4 10 -10z m84 -31
c-31 -12 -39 -10 -19 5 11 8 24 12 29 8 5 -3 1 -9 -10 -13z"/>
<path d="M9148 1723 c-10 -2 -18 -8 -18 -11 0 -4 -11 -20 -25 -35 -14 -15 -22
-27 -18 -28 4 0 -3 -5 -17 -11 -19 -8 -21 -12 -10 -16 62 -22 64 -23 50 -32
-8 -5 -16 -24 -17 -42 -2 -18 -4 -49 -6 -68 -2 -19 0 -44 3 -54 13 -38 -24
-126 -70 -167 -24 -22 -46 -37 -48 -34 -3 3 -11 0 -17 -5 -9 -7 -16 -6 -25 5
-18 22 -39 19 -33 -4 3 -14 0 -19 -14 -18 -12 2 -21 -8 -27 -30 -6 -17 -18
-34 -28 -36 -21 -6 -23 4 -6 21 9 9 9 15 0 24 -13 13 -16 12 -80 -30 -21 -14
-22 -13 -20 9 3 21 -1 24 -27 21 -16 -2 -31 -8 -33 -13 -2 -5 -10 -9 -17 -9
-20 0 -30 -21 -14 -30 8 -5 18 -2 26 8 12 16 12 15 6 -2 -6 -17 -3 -19 30 -13
26 4 35 2 31 -7 -6 -15 57 -9 67 6 4 6 9 6 13 -1 4 -6 2 -11 -5 -11 -9 0 -9
-3 0 -14 10 -11 8 -15 -6 -19 -17 -4 -17 -5 0 -6 10 0 20 5 23 13 4 12 11 13
29 4 35 -16 51 -4 59 41 5 32 11 41 26 41 11 0 20 -7 20 -16 0 -8 4 -13 9 -10
18 11 42 -6 36 -25 -8 -23 1 -24 21 -4 9 8 27 15 41 15 15 0 24 3 20 6 -3 3 5
16 19 29 14 13 22 29 18 38 -3 8 0 18 6 22 7 4 10 0 8 -11 -2 -12 4 -19 17
-22 16 -2 17 -1 5 7 -13 9 -13 11 3 11 9 0 17 5 17 11 0 5 4 8 9 5 5 -3 11 3
14 14 3 12 11 18 20 15 16 -7 51 40 42 55 -4 6 -10 8 -14 6 -4 -3 -6 18 -5 47
2 35 0 47 -6 37 -15 -24 -22 -5 -9 24 11 24 10 28 -9 42 -12 8 -19 21 -15 30
3 8 -3 24 -12 34 -16 18 -17 27 -6 89 18 113 17 117 -31 104z m42 -267 c0 -3
-4 -8 -10 -11 -5 -3 -10 -1 -10 4 0 6 5 11 10 11 6 0 10 -2 10 -4z m40 -156
c8 -5 11 -10 5 -10 -5 0 -17 5 -25 10 -8 5 -10 10 -5 10 6 0 17 -5 25 -10z
m-70 -60 c0 -11 -4 -20 -9 -20 -5 0 -7 9 -4 20 3 11 7 20 9 20 2 0 4 -9 4 -20z
m-105 -40 c-3 -5 -10 -10 -16 -10 -5 0 -9 5 -9 10 0 6 7 10 16 10 8 0 12 -4 9
-10z m26 -33 c-8 -8 -11 -7 -11 4 0 20 13 34 18 19 3 -7 -1 -17 -7 -23z m-40
-20 c-8 -8 -11 -7 -11 4 0 20 13 34 18 19 3 -7 -1 -17 -7 -23z m-141 8 c0 -8
-4 -15 -10 -15 -5 0 -7 7 -4 15 4 8 8 15 10 15 2 0 4 -7 4 -15z"/>
<path d="M10992 1698 c-18 -18 -15 -23 13 -24 28 -2 28 -2 19 20 -7 19 -16 20
-32 4z"/>
<path d="M1666 1691 c-3 -5 3 -7 14 -4 11 3 20 1 20 -5 0 -6 -8 -13 -17 -15
-16 -4 -16 -5 -1 -6 9 0 19 -9 22 -18 2 -10 4 -2 3 17 -2 34 -27 54 -41 31z"/>
<path d="M1746 1691 c-4 -5 3 -7 14 -4 23 6 26 13 6 13 -8 0 -17 -4 -20 -9z"/>
<path d="M1817 1693 c-3 -5 5 -8 18 -8 13 0 21 3 18 8 -2 4 -10 7 -18 7 -8 0
-16 -3 -18 -7z"/>
<path d="M2012 1686 c7 -8 15 -12 17 -11 5 6 -10 25 -20 25 -5 0 -4 -6 3 -14z"/>
<path d="M2052 1694 c10 -3 19 -19 21 -37 4 -31 5 -31 3 3 -1 27 -5 35 -21 37
-14 1 -15 0 -3 -3z"/>
<path d="M2115 1690 c-8 -13 3 -30 18 -29 9 0 9 2 0 6 -18 7 -16 21 5 26 15 4
15 5 0 6 -9 0 -20 -3 -23 -9z"/>
<path d="M2186 1691 c-4 -5 3 -7 14 -4 23 6 26 13 6 13 -8 0 -17 -4 -20 -9z"/>
<path d="M2302 1686 c7 -8 15 -12 17 -11 5 6 -10 25 -20 25 -5 0 -4 -6 3 -14z"/>
<path d="M2385 1689 c-4 -6 -4 -13 -1 -16 3 -4 6 -1 6 5 0 6 8 13 18 15 15 4
15 5 0 6 -9 0 -20 -4 -23 -10z"/>
<path d="M2463 1665 c0 -22 2 -30 4 -17 2 12 2 30 0 40 -3 9 -5 -1 -4 -23z"/>
<path d="M10835 1664 c-8 -20 -15 -46 -15 -58 1 -19 2 -19 13 -4 9 11 18 14
27 8 12 -7 12 -12 2 -22 -16 -16 -15 -48 1 -48 8 0 17 3 21 7 11 11 48 14 41
3 -3 -5 -1 -10 4 -10 6 0 11 5 11 10 0 7 25 9 68 7 43 -3 66 -8 65 -16 -4 -17
26 -13 47 7 28 26 12 45 -22 28 -30 -16 -44 -10 -27 11 9 10 3 10 -25 -2 -20
-8 -37 -14 -37 -13 -11 22 -3 51 17 60 23 11 41 38 25 38 -4 0 -27 -13 -49
-30 -49 -35 -56 -37 -42 -10 9 17 7 20 -14 26 -14 3 -30 3 -36 -1 -9 -6 -9 -2
0 15 16 30 8 34 -19 8 l-23 -21 7 22 c12 37 -23 24 -40 -15z"/>
<path d="M10033 1668 c-13 -6 -23 -14 -23 -17 0 -3 -27 -35 -60 -69 -33 -35
-60 -58 -60 -50 0 7 4 19 9 27 14 22 -15 47 -34 31 -20 -17 -19 -26 7 -63 12
-17 17 -27 10 -23 -7 4 -12 3 -12 -3 0 -18 15 -19 53 -4 28 12 35 18 25 24
-11 7 -10 11 2 19 8 5 12 10 9 10 -3 0 19 26 49 58 30 31 59 56 64 54 5 -1 7
2 3 8 -7 12 -13 12 -42 -2z"/>
<path d="M2185 1660 c-3 -5 -3 -14 0 -20 8 -12 32 -13 39 -1 4 5 -3 7 -14 4
-11 -3 -20 -1 -20 5 0 6 10 13 23 15 22 4 22 4 0 6 -12 0 -25 -3 -28 -9z"/>
<path d="M2150 1652 c0 -7 -10 -13 -22 -13 -19 -1 -20 -2 -4 -6 20 -5 44 12
33 24 -4 3 -7 1 -7 -5z"/>
<path d="M1747 1638 c2 -5 10 -8 18 -8 8 0 16 3 18 8 3 4 -5 7 -18 7 -13 0
-21 -3 -18 -7z"/>
<path d="M1817 1638 c2 -5 10 -8 18 -8 8 0 16 3 18 8 3 4 -5 7 -18 7 -13 0
-21 -3 -18 -7z"/>
<path d="M2388 1638 c5 -5 16 -8 23 -6 8 3 3 7 -10 11 -17 4 -21 3 -13 -5z"/>
<path d="M1668 1633 c7 -3 16 -2 19 1 4 3 -2 6 -13 5 -11 0 -14 -3 -6 -6z"/>
<path d="M1898 1633 c7 -3 16 -2 19 1 4 3 -2 6 -13 5 -11 0 -14 -3 -6 -6z"/>
<path d="M9780 1636 c0 -2 11 -28 24 -57 l24 -54 3 47 c4 41 1 48 -19 58 -24
11 -32 12 -32 6z"/>
<path d="M11065 1620 c3 -5 10 -10 16 -10 5 0 9 5 9 10 0 6 -7 10 -16 10 -8 0
-12 -4 -9 -10z"/>
<path d="M7970 1580 c0 -13 18 -22 24 -11 3 5 -1 11 -9 15 -8 3 -15 1 -15 -4z"/>
<path d="M10407 1546 c-7 -18 15 -70 33 -81 17 -11 11 49 -9 74 -16 21 -19 21
-24 7z"/>
<path d="M10086 1531 c-8 -12 3 -41 15 -41 12 0 12 37 0 45 -5 3 -12 1 -15 -4z"/>
<path d="M8035 1510 c-3 -5 1 -10 10 -10 9 0 13 5 10 10 -3 6 -8 10 -10 10 -2
0 -7 -4 -10 -10z"/>
<path d="M8973 1480 c-3 -11 -9 -17 -14 -14 -5 3 -9 0 -9 -5 0 -6 -6 -10 -12
-8 -9 1 -12 -8 -10 -27 2 -16 -2 -33 -9 -37 -16 -10 -71 0 -81 15 -10 13 -28
-11 -27 -34 1 -11 3 -10 6 3 2 9 9 17 14 17 6 0 7 -9 3 -22 -6 -20 -5 -21 9
-10 15 13 57 8 57 -6 0 -4 11 -7 25 -7 14 0 25 4 25 9 0 4 7 5 16 2 8 -3 12
-2 9 4 -3 5 5 22 19 36 21 24 42 81 32 91 -2 2 -13 6 -26 8 -16 3 -24 -1 -27
-15z"/>
<path d="M10240 1496 c0 -3 9 -10 20 -16 11 -6 20 -8 20 -6 0 3 -9 10 -20 16
-11 6 -20 8 -20 6z"/>
<path d="M7900 1470 c7 -14 7 -20 0 -20 -5 0 -10 -4 -10 -8 0 -10 36 -9 46 1
4 4 2 7 -4 7 -7 0 -12 9 -12 20 0 11 -7 20 -15 20 -13 0 -14 -4 -5 -20z"/>
<path d="M9836 1468 c4 -13 10 -25 15 -28 4 -3 4 -11 0 -18 -15 -25 1 -64 30
-76 33 -12 38 -40 12 -55 -10 -6 -15 -11 -10 -11 4 0 0 -11 -9 -25 -13 -20
-13 -25 -3 -25 11 0 11 -2 -1 -10 -11 -7 -7 -10 18 -10 17 0 32 -2 32 -4 0
-16 -14 -36 -26 -36 -8 0 -14 -4 -14 -10 0 -5 7 -7 15 -4 8 4 15 1 15 -5 0 -6
-5 -11 -10 -11 -6 0 -8 -11 -6 -26 3 -15 0 -27 -8 -30 -8 -3 -12 -18 -10 -40
2 -24 -2 -34 -12 -34 -8 0 -14 -9 -14 -21 0 -11 4 -18 9 -15 5 4 7 -3 4 -14
-3 -11 0 -20 6 -20 6 0 11 -9 11 -20 0 -13 10 -24 27 -31 31 -12 78 -8 79 6 1
29 17 75 25 75 5 0 9 6 9 14 0 7 9 16 20 19 14 4 18 10 13 23 -4 11 -8 13 -11
6 -2 -7 -10 -12 -18 -12 -9 0 -12 5 -9 10 3 6 0 11 -7 11 -7 1 0 4 17 8 32 7
46 38 23 52 -10 7 -9 9 4 9 10 0 29 -18 42 -39 14 -22 34 -42 45 -46 10 -3 22
-12 25 -20 4 -12 -4 -15 -34 -15 -40 0 -62 -16 -40 -30 9 -5 7 -18 -9 -49 -21
-40 -21 -41 -2 -41 22 0 61 44 61 69 0 13 2 13 9 2 7 -11 12 -10 22 8 8 11 23
21 34 20 20 0 20 0 0 -9 -20 -8 -19 -9 1 -9 34 -1 84 11 84 20 0 5 -7 9 -15 9
-24 0 -17 19 11 32 24 11 25 13 7 25 -15 12 -16 15 -3 23 23 14 7 21 -27 11
-31 -9 -73 3 -43 13 8 2 30 9 49 15 19 6 46 11 60 12 23 0 24 1 6 8 -32 13
-183 22 -190 11 -3 -5 -13 -6 -21 -3 -13 5 -13 7 -2 14 9 6 4 9 -14 9 -18 0
-28 5 -28 15 0 9 -7 18 -15 21 -13 5 -11 10 7 25 13 10 28 23 35 29 7 5 18 10
26 10 7 0 19 6 26 13 10 10 14 8 23 -7 17 -31 69 -79 111 -104 l38 -22 55 20
c56 19 70 15 62 -20 -4 -19 32 -25 43 -8 25 39 -13 160 -66 207 -19 17 -51 33
-72 36 -21 3 -48 8 -60 11 -13 2 -23 0 -23 -5 0 -6 -16 -13 -35 -17 -20 -3
-40 -16 -50 -31 -15 -22 -21 -24 -68 -18 -38 5 -60 2 -82 -9 -30 -16 -30 -16
-42 17 -16 44 -16 44 9 67 l22 20 -23 0 c-12 0 -20 4 -17 9 10 15 -20 31 -58
33 -23 1 -43 9 -58 25 -27 29 -41 30 -32 1z m124 -42 c0 -2 -9 -6 -20 -9 -11
-3 -18 -1 -14 4 5 9 34 13 34 5z m416 -102 c40 -6 55 -23 56 -65 1 -25 -7 -40
-35 -66 -41 -37 -79 -43 -117 -16 -65 45 -80 106 -35 142 26 20 33 20 131 5z
m-446 -84 c0 -5 -2 -10 -4 -10 -2 0 -12 -3 -22 -7 -16 -6 -17 -5 -4 10 17 19
30 22 30 7z m10 -195 c0 -19 -24 -29 -47 -20 -17 6 -17 7 1 21 26 18 46 18 46
-1z m297 -21 c-3 -3 -12 -4 -19 -1 -8 3 -5 6 6 6 11 1 17 -2 13 -5z m-317 -18
c0 -3 -4 -8 -10 -11 -5 -3 -10 -1 -10 4 0 6 5 11 10 11 6 0 10 -2 10 -4z"/>
<path d="M10323 1285 c-30 -10 -31 -12 -20 -35 7 -13 17 -25 24 -27 14 -5 35
32 31 55 -3 15 -8 16 -35 7z"/>
<path d="M10072 1474 c10 -10 20 -15 24 -12 3 4 -5 12 -18 18 -22 12 -22 12
-6 -6z"/>
<path d="M7977 1473 c-4 -3 -7 -11 -7 -17 0 -6 5 -5 12 2 6 6 9 14 7 17 -3 3
-9 2 -12 -2z"/>
<path d="M9890 1470 c0 -5 5 -10 10 -10 6 0 10 5 10 10 0 6 -4 10 -10 10 -5 0
-10 -4 -10 -10z"/>
<path d="M9948 1453 c7 -3 16 -2 19 1 4 3 -2 6 -13 5 -11 0 -14 -3 -6 -6z"/>
<path d="M8047 1400 c-3 -14 0 -20 10 -20 14 0 13 -3 -2 -20 -14 -16 -20 -17
-27 -8 -5 9 -7 5 -5 -10 4 -28 22 -48 31 -33 4 5 14 7 23 4 13 -5 15 -2 10 11
-11 28 11 59 38 54 17 -4 22 -1 18 9 -4 11 -16 13 -44 8 -33 -6 -38 -4 -33 9
3 9 2 16 -4 16 -5 0 -12 -9 -15 -20z"/>
<path d="M10455 1390 c-4 -7 0 -19 9 -28 13 -14 16 -14 16 -2 0 25 -16 44 -25
30z"/>
<path d="M10205 1380 c-3 -6 1 -7 9 -4 18 7 21 14 7 14 -6 0 -13 -4 -16 -10z"/>
<path d="M8106 1345 c-3 -8 2 -19 12 -24 9 -6 13 -11 7 -11 -5 0 -3 -5 5 -10
13 -9 13 -10 0 -10 -8 -1 3 -7 25 -15 49 -18 52 -18 37 -3 -7 7 -12 19 -12 27
0 11 4 10 15 -5 14 -19 14 -19 15 2 0 23 -17 34 -56 34 -15 0 -24 6 -24 15 0
19 -16 19 -24 0z"/>
<path d="M7900 1331 c0 -19 53 -51 84 -50 l31 1 -35 7 c-45 9 -60 18 -60 37 0
8 -4 14 -10 14 -5 0 -10 -4 -10 -9z"/>
<path d="M1745 1305 c-138 -49 -129 -246 13 -284 29 -8 231 -11 664 -9 606 3
624 4 658 23 97 58 97 202 0 260 -34 19 -51 20 -665 22 -525 2 -637 0 -670
-12z m435 -135 c0 -27 -4 -50 -10 -50 -5 0 -10 23 -10 50 0 28 5 50 10 50 6 0
10 -22 10 -50z m-212 33 c-16 -2 -28 -11 -28 -19 0 -8 11 -15 28 -15 l27 -2
-27 -4 c-37 -6 -37 -33 0 -33 39 0 56 19 37 40 -14 16 -12 17 25 17 38 0 40
-1 26 -15 -14 -14 -14 -18 -1 -32 14 -15 9 -17 -60 -18 l-75 -2 0 45 0 45 38
-1 c30 -2 32 -3 10 -6z m514 -20 l17 -28 1 28 c0 15 5 27 10 27 6 0 10 -20 10
-45 0 -52 -17 -59 -42 -17 l-17 27 -1 -27 c0 -16 -4 -28 -10 -28 -5 0 -10 20
-10 45 0 52 17 59 42 18z m-334 -25 c3 -22 -2 -30 -22 -40 -14 -6 -26 -17 -26
-25 0 -7 -4 -13 -10 -13 -5 0 -10 25 -10 56 l0 55 33 -3 c27 -2 33 -8 35 -30z
m120 0 c2 -18 -3 -30 -17 -37 -29 -16 -51 -3 -51 28 0 35 8 43 40 39 19 -2 26
-10 28 -30z m122 11 c0 -12 -7 -19 -20 -19 -11 0 -20 -5 -20 -11 0 -6 9 -8 20
-4 23 7 28 -10 5 -19 -25 -9 -45 4 -45 30 0 15 -6 24 -15 24 -9 0 -15 -9 -15
-25 0 -14 -4 -25 -10 -25 -5 0 -10 15 -10 34 l0 35 55 0 c48 0 55 -3 55 -20z
m210 9 c0 -9 4 -8 10 2 9 13 11 13 20 0 9 -13 11 -13 20 0 8 13 11 12 24 -5
14 -18 15 -18 16 -2 0 9 5 17 11 17 7 0 9 -10 4 -27 -9 -38 -23 -52 -35 -33
-8 13 -11 13 -19 1 -11 -17 -31 -6 -32 17 0 13 -3 12 -11 -5 -26 -53 -90 -28
-73 28 7 22 65 27 65 7z m269 -11 c8 -10 7 -17 -1 -25 -15 -15 -32 -16 -23 -2
4 6 -14 11 -47 12 l-53 2 53 3 c30 2 50 8 47 14 -9 14 11 11 24 -4z"/>
<path d="M2104 1166 c-4 -10 -2 -22 4 -28 8 -8 13 -7 18 6 4 10 2 22 -4 28 -8
8 -13 7 -18 -6z"/>
<path d="M2224 1166 c-4 -10 -2 -22 4 -28 8 -8 13 -7 18 6 4 10 2 22 -4 28 -8
8 -13 7 -18 -6z"/>
<path d="M2355 1170 c-3 -5 -1 -10 4 -10 6 0 11 5 11 10 0 6 -2 10 -4 10 -3 0
-8 -4 -11 -10z"/>
<path d="M2558 1168 c-6 -16 1 -38 12 -38 15 0 19 28 6 40 -10 8 -15 7 -18 -2z"/>
<path d="M8283 1271 c-24 -4 -46 -11 -50 -15 -10 -9 17 -26 32 -20 7 3 15 -2
18 -10 10 -24 26 -19 19 6 -4 17 -2 20 11 15 12 -5 17 -1 17 13 0 11 -1 19 -2
19 -2 -1 -22 -5 -45 -8z"/>
<path d="M8198 1233 c7 -3 16 -2 19 1 4 3 -2 6 -13 5 -11 0 -14 -3 -6 -6z"/>
<path d="M8393 1226 c-14 -16 -7 -27 13 -19 8 3 14 -1 14 -10 0 -10 7 -13 20
-10 23 6 26 23 8 41 -16 16 -40 15 -55 -2z"/>
<path d="M8480 1217 c0 -10 5 -17 10 -17 6 0 10 -10 10 -22 0 -13 4 -27 8 -33
12 -17 28 -14 28 6 0 10 -6 19 -13 19 -7 0 -10 6 -7 13 2 7 -4 22 -16 32 -18
16 -20 16 -20 2z"/>
<path d="M8340 1195 c7 -8 19 -15 27 -15 13 0 13 3 3 15 -7 8 -19 15 -27 15
-13 0 -13 -3 -3 -15z"/>
<path d="M8583 1173 c9 -9 19 -14 23 -11 10 10 -6 28 -24 28 -15 0 -15 -1 1
-17z"/>
<path d="M8430 1166 c0 -8 7 -17 16 -20 29 -11 34 -6 14 14 -24 24 -30 25 -30
6z"/>
<path d="M11360 1125 c-14 -16 -3 -20 19 -6 8 5 9 11 3 15 -5 3 -15 -1 -22 -9z"/>
<path d="M11491 1128 l-44 -10 33 -21 c34 -21 34 -21 9 -28 l-24 -6 28 -12
c35 -14 60 -14 52 -1 -4 6 1 7 11 3 13 -5 14 -8 4 -11 -9 -3 -5 -9 11 -19 l24
-14 -25 8 c-14 4 -41 7 -60 8 -32 0 -35 -3 -36 -30 -1 -16 6 -38 14 -48 15
-17 15 -17 -12 -7 -36 13 -39 11 -21 -24 19 -37 19 -46 -2 -46 -16 0 -16 -1
-1 -16 16 -16 113 -55 120 -49 2 2 11 -8 22 -22 18 -24 18 -25 0 -16 -39 20
-110 52 -149 67 l-40 16 28 -21 c34 -26 35 -39 2 -39 -29 0 -31 -6 -10 -26 18
-19 20 -38 3 -29 -7 4 -4 -1 6 -9 11 -9 24 -16 29 -16 4 0 1 -7 -7 -16 -9 -8
-16 -18 -15 -22 0 -4 24 -27 53 -52 29 -25 59 -54 66 -65 12 -19 12 -19 -14
-2 -23 16 -26 16 -26 2 0 -9 7 -24 16 -32 8 -9 12 -19 7 -22 -17 -13 -12 -39
11 -64 14 -15 20 -27 13 -27 -18 0 -63 42 -71 66 -3 11 -20 34 -37 50 -24 23
-29 25 -23 9 7 -18 6 -19 -11 -5 -11 9 -16 10 -11 3 4 -8 2 -13 -7 -13 -8 0
-22 -9 -32 -20 -16 -17 -16 -20 -2 -26 19 -7 31 -35 14 -31 -7 1 -10 -5 -8
-13 1 -8 4 -25 5 -37 0 -11 4 -19 8 -17 4 2 10 -1 14 -7 4 -8 3 -9 -4 -5 -7 4
-12 2 -12 -4 0 -6 -14 -2 -30 10 l-30 21 10 -26 c15 -39 13 -47 -8 -36 -15 8
-18 5 -20 -17 -1 -15 -7 -29 -12 -30 -6 -2 -10 -12 -10 -23 0 -15 7 -19 38
-19 72 0 112 11 112 31 0 13 5 16 16 12 9 -3 14 -13 11 -24 -5 -18 4 -19 148
-19 l153 0 1 91 c1 53 -3 88 -8 84 -5 -3 -12 -1 -16 5 -3 5 1 10 10 10 13 0
15 12 11 78 -3 73 -17 147 -30 159 -13 13 -19 -9 -8 -27 7 -12 8 -20 2 -20
-13 0 -13 -67 0 -75 17 -10 11 -25 -7 -18 -12 5 -15 2 -10 -10 9 -24 -10 -31
-23 -7 -6 11 -19 20 -30 20 -18 0 -19 6 -15 57 2 31 9 59 15 63 8 5 8 15 0 34
-9 24 -8 27 5 22 13 -5 14 -2 5 15 -10 18 -10 19 9 7 25 -15 38 -4 20 18 -17
20 -21 44 -7 44 6 0 8 12 3 33 -4 17 -8 48 -9 67 -3 41 -22 90 -34 90 -5 0
-23 13 -41 29 -32 29 -32 29 -9 33 22 4 21 5 -13 26 -29 18 -35 27 -31 47 5
28 2 28 -67 13z m30 -461 c9 -7 21 -22 28 -35 11 -21 11 -22 -6 -12 -22 14
-57 60 -46 60 4 0 15 -6 24 -13z m163 -182 c11 -8 16 -15 10 -15 -5 0 -18 7
-28 15 -11 8 -16 15 -10 15 5 0 18 -7 28 -15z m-53 -12 c13 -16 12 -17 -3 -4
-10 7 -18 15 -18 17 0 8 8 3 21 -13z m-116 -74 c0 -8 3 -18 6 -24 12 -23 3
-40 -20 -37 -19 3 -22 0 -16 -17 4 -12 2 -21 -4 -21 -11 0 -15 13 -12 37 1 6
-3 14 -9 18 -14 9 -13 52 2 57 24 8 53 1 53 -13z"/>
<path d="M8598 1122 c8 -5 12 -18 10 -28 -3 -16 -13 -19 -61 -19 -48 0 -55 -2
-40 -12 26 -20 91 -16 120 7 14 11 32 20 40 20 11 0 11 3 1 14 -11 11 -15 11
-25 -3 -12 -14 -12 -14 -7 2 3 9 2 17 -4 17 -6 0 -19 3 -29 6 -13 4 -15 3 -5
-4z"/>
<path d="M11393 1109 c-24 -4 -51 -13 -60 -18 -17 -10 -17 -10 0 -11 10 0 16
-4 13 -9 -3 -5 -15 -7 -26 -4 -11 3 -17 9 -14 14 3 5 -4 9 -15 9 -27 0 -21
-34 8 -38 13 -2 19 -8 14 -15 -4 -7 0 -6 10 2 10 8 29 11 44 8 26 -5 26 -4 8
9 -18 13 -17 14 14 14 20 0 30 4 26 11 -4 6 1 17 11 24 11 8 17 14 14 14 -3
-1 -24 -5 -47 -10z"/>
<path d="M10350 1100 c-8 -5 -11 -12 -8 -16 10 -9 38 3 38 16 0 12 -10 13 -30
0z"/>
<path d="M10290 1096 c0 -2 7 -6 15 -10 8 -3 15 -1 15 4 0 6 -7 10 -15 10 -8
0 -15 -2 -15 -4z"/>
<path d="M11105 1090 c-4 -6 5 -10 20 -10 15 0 24 4 20 10 -3 6 -12 10 -20 10
-8 0 -17 -4 -20 -10z"/>
<path d="M10715 1041 c-11 -5 -42 -11 -70 -14 -27 -4 -51 -11 -53 -17 -2 -5
-10 -10 -18 -10 -29 0 -12 -29 24 -40 20 -7 54 -29 75 -49 37 -35 39 -35 53
-17 7 11 16 34 20 52 3 18 17 42 30 55 13 12 24 27 24 33 0 13 -57 18 -85 7z"/>
<path d="M10470 928 l-25 -11 23 -5 c28 -4 52 4 52 18 0 13 -18 12 -50 -2z"/>
<path d="M10220 915 c-23 -9 -28 -14 -15 -14 11 0 31 6 45 14 31 18 16 18 -30
0z"/>
<path d="M10005 889 c-48 -30 -78 -82 -35 -59 17 9 20 8 20 -7 1 -17 2 -16 15
1 9 11 12 29 9 39 -5 16 -3 19 10 14 11 -5 16 -1 16 13 0 11 -1 20 -2 19 -2 0
-16 -9 -33 -20z"/>
<path d="M10437 888 c-21 -11 -22 -32 -1 -24 8 3 12 2 9 -4 -8 -13 -3 -13 32
1 15 7 37 12 47 13 11 1 21 6 23 12 4 13 -87 15 -110 2z"/>
<path d="M10138 883 c-16 -2 -28 -10 -28 -16 -1 -23 -38 -57 -54 -51 -9 3 -16
11 -16 18 -1 11 -30 -22 -30 -34 0 -7 68 -4 105 5 12 3 27 21 37 45 9 22 16
39 15 39 -1 -1 -14 -4 -29 -6z"/>
<path d="M10620 865 c-7 -8 -16 -13 -20 -10 -5 3 -11 1 -14 -4 -8 -12 19 -22
30 -11 5 4 16 10 26 12 13 2 14 5 3 15 -10 10 -16 9 -25 -2z"/>
<path d="M10483 837 c-32 -14 -29 -31 4 -22 34 8 39 13 27 24 -5 5 -19 4 -31
-2z"/>
<path d="M10535 830 c4 -6 11 -8 16 -5 14 9 11 15 -7 15 -8 0 -12 -5 -9 -10z"/>
<path d="M10703 833 c-7 -2 -13 -11 -13 -19 0 -9 -5 -12 -10 -9 -15 9 -40 -14
-40 -36 0 -11 7 -19 15 -19 8 0 15 5 15 11 0 5 4 8 9 5 5 -3 19 3 32 13 16 12
37 17 62 15 27 -2 37 1 37 11 0 27 -67 45 -107 28z"/>
<path d="M10225 790 c-20 -13 -44 -18 -75 -17 -30 1 -54 -4 -65 -13 -17 -14
-15 -15 21 -22 21 -3 43 -2 48 3 5 5 14 2 20 -7 10 -12 19 -9 64 22 28 20 52
41 52 45 0 15 -34 10 -65 -11z"/>
<path d="M7397 793 c-2 -5 -4 -20 -5 -35 -1 -20 3 -28 14 -28 12 0 14 5 9 18
-4 9 -7 25 -7 35 1 18 -4 22 -11 10z"/>
<path d="M9936 784 c-9 -24 -7 -28 7 -15 8 6 18 7 23 3 4 -4 2 1 -5 11 -16 21
-17 21 -25 1z"/>
<path d="M10530 790 c0 -5 4 -10 9 -10 6 0 13 5 16 10 3 6 -1 10 -9 10 -9 0
-16 -4 -16 -10z"/>
<path d="M10070 780 c-13 -9 -13 -10 0 -10 8 0 22 5 30 10 13 9 13 10 0 10 -8
0 -22 -5 -30 -10z"/>
<path d="M10267 755 c-29 -20 -34 -29 -25 -38 18 -20 54 -14 82 12 28 26 37
52 11 31 -13 -11 -14 -10 -9 4 9 24 -15 20 -59 -9z"/>
<path d="M10334 723 c-22 -24 -24 -29 -9 -31 19 -4 55 25 55 45 0 21 -19 15
-46 -14z"/>
<path d="M10384 716 c-9 -15 -14 -29 -11 -32 3 -3 13 6 23 20 9 15 14 29 11
32 -3 3 -13 -6 -23 -20z"/>
<path d="M9950 720 c0 -5 -19 -18 -42 -29 -33 -15 -37 -20 -20 -21 12 0 22 4
22 8 0 4 14 13 30 19 28 11 42 33 20 33 -5 0 -10 -4 -10 -10z"/>
<path d="M9965 694 c-22 -14 -33 -23 -24 -21 13 4 15 1 12 -14 -3 -12 -17 -22
-34 -26 -15 -3 -30 -12 -33 -20 -5 -12 -1 -14 19 -9 32 8 32 -2 0 -14 -32 -12
-33 -32 -1 -24 16 4 25 1 29 -9 8 -21 -1 -88 -15 -104 -8 -10 -6 -13 8 -13 18
0 114 126 114 149 0 5 5 13 12 17 7 5 8 3 3 -6 -5 -9 -4 -11 3 -6 9 5 7 14 -4
32 -9 13 -12 24 -8 24 5 0 3 4 -4 9 -12 7 -18 24 -21 54 -2 12 -14 8 -56 -19z"/>
<path d="M10423 694 c-3 -8 -1 -20 6 -27 6 -6 11 -7 11 -1 0 5 4 3 8 -4 7 -10
15 -10 36 -2 23 9 26 13 16 25 -15 18 -37 19 -43 3 -3 -8 -6 -6 -6 5 -1 21
-20 22 -28 1z"/>
<path d="M11450 633 c0 -6 6 -13 13 -16 6 -2 -3 -7 -21 -11 l-32 -8 46 -54
c25 -29 50 -51 56 -48 5 3 5 11 -2 19 -6 7 -10 17 -9 21 5 28 -4 56 -26 81
-13 15 -25 23 -25 16z"/>
<path d="M10033 546 c-21 -24 -49 -65 -62 -92 -13 -27 -32 -59 -42 -72 -17
-22 -17 -23 7 -47 16 -16 30 -22 42 -18 15 6 15 4 -2 -15 -11 -12 -25 -22 -31
-22 -11 0 -25 -21 -25 -35 0 -3 56 -4 125 -4 103 1 125 4 125 16 0 8 -4 11
-10 8 -6 -3 -7 1 -4 9 3 9 1 16 -6 16 -6 0 -10 8 -9 17 3 31 -1 43 -12 43 -6
0 -8 -7 -5 -17 4 -10 4 -14 0 -10 -4 4 -13 2 -21 -5 -11 -9 -12 -7 -7 8 10 33
21 57 50 116 27 54 28 86 2 60 -17 -17 -38 -15 -38 3 0 8 -5 15 -11 15 -6 0
-9 7 -5 15 8 21 -11 19 -23 -2 -13 -23 -14 -2 -1 31 5 14 8 26 6 26 -3 0 -22
-20 -43 -44z m-43 -156 c0 -5 -10 -10 -22 -10 -19 0 -20 2 -8 10 19 13 30 13
30 0z"/>
<path d="M10151 428 c-4 -12 -4 -38 1 -58 5 -19 12 -45 15 -57 3 -14 10 -20
19 -16 12 4 14 -1 9 -26 -4 -26 -2 -31 14 -31 11 0 22 6 24 13 4 10 6 10 6 0
1 -9 17 -13 46 -13 41 0 45 2 45 25 0 15 -6 25 -15 25 -11 0 -12 5 -5 26 14
37 13 49 -4 35 -10 -8 -16 -9 -21 -2 -7 12 -32 10 -54 -3 -10 -7 -12 -5 -7 5
4 8 -2 3 -13 -11 -24 -30 -25 -28 -7 31 l14 45 -28 -4 c-25 -4 -28 -1 -23 17
7 28 -5 27 -16 -1z"/>
<path d="M9880 359 c0 -5 5 -7 10 -4 6 3 10 8 10 11 0 2 -4 4 -10 4 -5 0 -10
-5 -10 -11z"/>
<path d="M9300 288 l-43 -43 28 -3 c32 -4 48 10 63 56 15 43 3 40 -48 -10z"/>
</g>
</svg>
